<?xml version="1.0" encoding="utf-8"?>
<!-- Generator: Adobe Illustrator 28.0.0, SVG Export Plug-In . SVG Version: 6.00 Build 0)  -->
<svg version="1.1" id="Layer_1" xmlns="http://www.w3.org/2000/svg" xmlns:xlink="http://www.w3.org/1999/xlink" x="0px" y="0px"
	 viewBox="0 0 150 150" style="enable-background:new 0 0 150 150;" xml:space="preserve">
<style type="text/css">
	.st0{fill:#FEEBD0;}
	.st1{fill:#371116;}
	.st2{fill-rule:evenodd;clip-rule:evenodd;fill:#371116;}
	.st3{fill:#3E000A;}
</style>
<circle class="st0" cx="75" cy="75" r="75"/>
<path class="st1" d="M129.1,83.7l-15.7,9.2l-11.6-6.9l11.9-5.2c2.3-1,3.8-3.3,3.8-5.8c0-2.5-1.5-4.8-3.8-5.8l-11.9-5.2l11.6-6.9
	l15.7,9.2c0.6,0.4,1.3,0.6,2,0.6c1.4,0,2.7-0.7,3.5-2c1.1-1.9,0.5-4.4-1.4-5.5l-11.8-6.9l9.8-5.8c1.9-1.1,2.6-3.6,1.4-5.5
	c-1.1-1.9-3.6-2.6-5.5-1.4l-9.8,5.8L117,31.8c-0.1-2.2-1.8-4-4.1-4c-2.2,0.1-4,1.9-4,4.1l0.4,18.2L98,56.8l1.3-12.3
	c0.3-2.5-1-4.9-3.1-6.2c-2.2-1.3-4.9-1.1-6.9,0.4L79,46.1V32.8L94.9,24c2-1.1,2.6-3.6,1.6-5.5c-1.1-2-3.6-2.6-5.5-1.6L79,23.6V12.2
	c0-2.2-1.8-4-4-4c-2.2,0-4,1.8-4,4v11.3L59,16.9c-2-1.1-4.4-0.4-5.5,1.6c-1.1,2-0.4,4.4,1.6,5.5L71,32.8v13.3l-10.3-7.5
	c-2-1.5-4.7-1.6-6.9-0.4c-2.2,1.3-3.4,3.7-3.1,6.2L52,56.8l-11.3-6.6L41.1,32c0.1-2.2-1.7-4.1-4-4.1c0,0-0.1,0-0.1,0
	c-2.2,0-4,1.8-4,4l-0.3,13.6l-9.8-5.8c-1.9-1.1-4.4-0.5-5.5,1.4c-1.1,1.9-0.5,4.4,1.4,5.5l9.8,5.8l-11.8,6.9
	c-1.9,1.1-2.6,3.6-1.4,5.5c0.8,1.3,2.1,2,3.5,2c0.7,0,1.4-0.2,2-0.6l15.7-9.2l11.6,6.9l-11.9,5.2c-2.3,1-3.8,3.3-3.8,5.8
	c0,2.5,1.5,4.8,3.8,5.8l11.9,5.2l-11.6,6.9l-15.7-9.2c-1.9-1.1-4.4-0.5-5.5,1.4c-1.1,1.9-0.5,4.4,1.4,5.5l11.8,6.9l-9.8,5.8
	c-1.9,1.1-2.6,3.6-1.4,5.5c0.8,1.3,2.1,2,3.5,2c0.7,0,1.4-0.2,2-0.6l9.8-5.8l0.3,13.6c0.1,2.2,1.9,4,4,4c0,0,0.1,0,0.1,0
	c2.2-0.1,4-1.9,4-4.1l-0.4-18.2L52,93.2l-1.3,12.3c-0.3,2.5,1,4.9,3.1,6.2c2.2,1.3,4.9,1.1,6.9-0.4l10.3-7.5v13.3L55.1,126
	c-2,1.1-2.6,3.6-1.6,5.5c0.7,1.3,2.1,2.1,3.5,2.1c0.7,0,1.3-0.2,2-0.5l11.9-6.7v11.3c0,2.2,1.8,4,4,4c2.2,0,4-1.8,4-4v-11.3
	l11.9,6.7c0.6,0.3,1.3,0.5,2,0.5c1.4,0,2.8-0.7,3.5-2.1c1.1-2,0.4-4.4-1.6-5.5L79,117.2v-13.3l10.3,7.5c1.1,0.8,2.4,1.2,3.8,1.2
	c1.1,0,2.2-0.3,3.2-0.9c2.2-1.3,3.4-3.7,3.1-6.2L98,93.2l11.3,6.6l-0.4,18.2c-0.1,2.2,1.7,4.1,4,4.1c0,0,0.1,0,0.1,0
	c2.2,0,4-1.8,4-4l0.3-13.6l9.8,5.8c0.6,0.4,1.4,0.6,2,0.6c1.4,0,2.7-0.7,3.5-2c1.1-1.9,0.5-4.4-1.4-5.5l-9.8-5.8l11.8-6.9
	c1.9-1.1,2.6-3.6,1.4-5.5C133.5,83.3,131,82.6,129.1,83.7z M106.8,75l-13.6,6l-4.7-2.8c0.2-1,0.4-2.1,0.4-3.2c0-1.1-0.1-2.2-0.4-3.2
	l4.7-2.8L106.8,75z M90.9,47.5l-1.6,14.4l-5,2.9c-1.5-1.4-3.3-2.4-5.3-3v-5.6L90.9,47.5z M59.1,47.5L71,56.1v5.6
	c-2,0.6-3.8,1.7-5.3,3l-5-2.9L59.1,47.5z M43.2,75l13.6-6l4.7,2.8c-0.2,1-0.4,2.1-0.4,3.2c0,1.1,0.1,2.2,0.4,3.2L56.8,81L43.2,75z
	 M59.1,102.5l1.6-14.4l5-2.9c1.5,1.4,3.3,2.4,5.3,3v5.6L59.1,102.5z M90.9,102.5L79,93.9v-5.6c2-0.6,3.8-1.7,5.3-3l5,2.9L90.9,102.5
	z"/>
</svg>
