<?xml version="1.0" encoding="utf-8"?>
<!-- Generator: Adobe Illustrator 28.0.0, SVG Export Plug-In . SVG Version: 6.00 Build 0)  -->
<svg version="1.1" id="Layer_1" xmlns="http://www.w3.org/2000/svg" xmlns:xlink="http://www.w3.org/1999/xlink" x="0px" y="0px"
	 viewBox="0 0 150 150" style="enable-background:new 0 0 150 150;" xml:space="preserve">
<style type="text/css">
	.st0{fill:#FEEBD0;}
	.st1{fill:#371116;}
	.st2{fill-rule:evenodd;clip-rule:evenodd;fill:#371116;}
	.st3{fill:#3E000A;}
</style>
<circle class="st0" cx="75" cy="75" r="75"/>
<g>
	<path class="st1" d="M35.7,27.4l13.8,5.7c-1.6,0.6-3.2,1.2-4.8,1.9c-5.3,2.4-9.8,5.6-13.2,9l-3.5-9.2c-4.2,1.3-8.9,0.3-12.2-3
		c-4.6-4.7-4.5-12.3,0.2-16.9s12.3-4.5,16.9,0.2C36.3,18.5,37.2,23.2,35.7,27.4z"/>
	<path class="st1" d="M94.3,95.8c20.3-19.8,38.2-26.3,42.1-22.3c3.9,4-3,21.8-23.3,41.6C92.9,134.9,75,141.4,71,137.4
		C67.1,133.3,74,115.5,94.3,95.8z"/>
	<path class="st1" d="M76.9,63.8c9-4.1,18.2-7,26.7-8.3l-16-6.6c-0.2,0-0.5,0-0.7,0c-7.2,0.2-15.7,2.4-23.8,6.1
		c-11,5-18,11.3-21,16.2l5.4,13.9C53.3,77.5,63.8,69.8,76.9,63.8z M55.4,67.4c1.4,1.4,1.3,3.8-0.1,5.2c-1.5,1.4-3.8,1.4-5.2,0
		c-1.4-1.4-1.3-3.8,0.1-5.2S54,66,55.4,67.4z M67.4,58.8c1.4,1.4,1.3,3.8-0.1,5.2c-1.5,1.4-3.8,1.4-5.2,0c-1.4-1.4-1.3-3.8,0.1-5.2
		C63.7,57.4,66,57.4,67.4,58.8z M76.7,58.2c-1.4-1.4-1.3-3.8,0.1-5.2c1.5-1.4,3.8-1.4,5.2,0c1.4,1.4,1.3,3.8-0.1,5.2
		C80.4,59.6,78.1,59.6,76.7,58.2z"/>
	<path class="st1" d="M60.3,48.9c5.1-2.3,10.1-4,14.9-5.2l-15.1-6.3c-3.9,0.5-8.1,1.7-12.5,3.7c-5.8,2.7-10.6,6.3-13.2,10l4.9,12.6
		C43.9,58.3,51.3,53,60.3,48.9z M46,48.7c1.4,1.4,1.3,3.8-0.1,5.2c-1.5,1.4-3.8,1.4-5.2,0c-1.4-1.4-1.3-3.8,0.1-5.2
		C42.3,47.2,44.6,47.2,46,48.7z M58.7,46.8c-1.5,1.4-3.8,1.4-5.2,0c-1.4-1.4-1.3-3.8,0.1-5.2c1.5-1.4,3.8-1.4,5.2,0
		C60.2,43.1,60.2,45.4,58.7,46.8z"/>
	<path class="st1" d="M88.9,91.7c1.1-0.5,2.1-0.9,3.2-1.4c-0.6,0.5-1.1,1-1.6,1.6c-12.6,12.3-23.3,27.4-25.6,38.4l-5.7-14.8
		C62.2,108.8,72.1,99.4,88.9,91.7z"/>
	<path class="st1" d="M106.3,78.5c9-6.4,18-10.9,24.9-11.5l-3.7-1.5l-0.4,0.2c-0.1-0.2-0.3-0.4-0.4-0.6l-8.4-3.5
		c-9-1.1-23.3,1.2-38.6,8.3c-16,7.3-25.8,16.3-29.2,22.8l5.7,14.7c5.7-7.8,16.5-15.8,30-22C92.8,82.5,99.6,80.1,106.3,78.5z
		 M62.1,89.8c1.4,1.4,1.3,3.8-0.1,5.2c-1.5,1.4-3.8,1.4-5.2,0c-1.4-1.4-1.3-3.8,0.1-5.2C58.4,88.4,60.7,88.4,62.1,89.8z M75.9,79.8
		c1.4,1.4,1.3,3.8-0.1,5.2c-1.5,1.4-3.8,1.4-5.2,0c-1.4-1.4-1.3-3.8,0.1-5.2C72.2,78.4,74.6,78.4,75.9,79.8z M91.9,72.3
		c1.4,1.4,1.3,3.8-0.1,5.2c-1.5,1.4-3.8,1.4-5.2,0s-1.3-3.8,0.1-5.2C88.2,70.9,90.5,70.9,91.9,72.3z M102.9,72
		c-1.4-1.4-1.3-3.8,0.1-5.2s3.8-1.4,5.2,0c1.4,1.4,1.3,3.8-0.1,5.2C106.6,73.4,104.3,73.4,102.9,72z"/>
</g>
</svg>
