<?xml version="1.0" encoding="utf-8"?>
<!-- Generator: Adobe Illustrator 28.0.0, SVG Export Plug-In . SVG Version: 6.00 Build 0)  -->
<svg version="1.1" id="Layer_1" xmlns="http://www.w3.org/2000/svg" xmlns:xlink="http://www.w3.org/1999/xlink" x="0px" y="0px"
	 viewBox="0 0 150 150" style="enable-background:new 0 0 150 150;" xml:space="preserve">
<style type="text/css">
	.st0{fill:#FEEBD0;}
	.st1{fill:#371116;}
	.st2{fill-rule:evenodd;clip-rule:evenodd;fill:#371116;}
	.st3{fill:#3E000A;}
</style>
<circle class="st0" cx="75" cy="75" r="75"/>
<g>
	<path class="st1" d="M57.2,40.1c0.5,1.4,1.8,2.3,3.2,2.3c0.3,0,0.7-0.1,1-0.2c1.8-0.6,2.7-2.5,2.2-4.2l-3.3-10.1
		c-0.6-1.8-2.5-2.7-4.2-2.2c-1.8,0.6-2.7,2.5-2.2,4.2L57.2,40.1z"/>
	<path class="st1" d="M45.3,46.4c0.7,0.7,1.5,1,2.4,1c0.9,0,1.7-0.3,2.4-1c1.3-1.3,1.3-3.4,0-4.7L32.5,24.1c-1.3-1.3-3.4-1.3-4.7,0
		c-1.3,1.3-1.3,3.4,0,4.7L45.3,46.4z"/>
	<path class="st1" d="M75,39.7c1.9,0,3.4-1.5,3.4-3.4V11.5c0-1.9-1.5-3.4-3.4-3.4s-3.4,1.5-3.4,3.4v24.8
		C71.6,38.2,73.1,39.7,75,39.7z"/>
	<path class="st1" d="M36.4,68H11.5c-1.9,0-3.4,1.5-3.4,3.4s1.5,3.4,3.4,3.4h24.8c1.9,0,3.4-1.5,3.4-3.4S38.2,68,36.4,68z"/>
	<path class="st1" d="M87.6,41.4c0.4,0.1,0.7,0.2,1.1,0.2c1.4,0,2.7-0.9,3.2-2.3l4.2-12.2c0.6-1.8-0.3-3.7-2.1-4.3
		c-1.8-0.6-3.7,0.3-4.3,2.1l-4.2,12.2C84.9,38.9,85.9,40.8,87.6,41.4z"/>
	<path class="st1" d="M102.3,47.3c0.9,0,1.7-0.3,2.4-1l17.6-17.6c1.3-1.3,1.3-3.4,0-4.7c-1.3-1.3-3.4-1.3-4.7,0L100,41.6
		c-1.3,1.3-1.3,3.4,0,4.7C100.6,47,101.5,47.3,102.3,47.3z"/>
	<path class="st1" d="M123.1,55.1c1.8-0.6,2.7-2.5,2.2-4.2c-0.6-1.8-2.5-2.7-4.2-2.2l-11.9,3.9c-1.8,0.6-2.7,2.5-2.2,4.2
		c0.5,1.4,1.8,2.3,3.2,2.3c0.3,0,0.7-0.1,1-0.2L123.1,55.1z"/>
	<path class="st1" d="M74.8,43C57,43,42.5,57.3,42.5,74.9c0,8.8,3.8,17.3,10.3,23.3c4.2,5,4.3,7.1,4.3,7.3v9v7.8
		c0,0.3,0,0.5,0.1,0.8c0.5,2.2,2.1,5.5,5,7c0,0.2,0,0.3,0,0.5c0,6.2,5.1,11.3,11.3,11.3h2.2c6.2,0,11.3-5.1,11.3-11.3
		c0-0.1,0-0.1,0-0.2c3.3-1.3,5.1-5,5.6-7.3c0.1-0.3,0.1-0.5,0.1-0.8v-7.8v-9c0-0.2,0.1-2.3,4.3-7.3c1.3-1.2,2.6-2.6,3.7-4
		c0.1-0.1,0.2-0.3,0.3-0.5c4.1-5.5,6.2-12,6.2-18.7C107.2,57.3,92.7,43,74.8,43z M81,133.4H68.5c-1.1,0-1.9-0.9-1.9-2
		c0-1.1,0.9-2,1.9-2H81c1.1,0,1.9,0.9,1.9,2C82.9,132.5,82,133.4,81,133.4z M85.8,120.2H63.5c-1.1,0-2-0.9-2-2c0-1.1,0.9-2,2-2h22.4
		c1.1,0,2,0.9,2,2C87.8,119.3,86.9,120.2,85.8,120.2z M95.4,89.8C95.4,89.8,95.4,89.9,95.4,89.8c-1,1.3-2.1,2.5-3.2,3.5
		c-0.1,0.1-0.2,0.2-0.3,0.3c-4.1,4.8-6,8.7-6,11.8v5.7h-0.1v-3.7h-22v-2c0-3.1-2-7-6-11.8c-0.1-0.1-0.2-0.2-0.3-0.3
		c-5.3-4.8-8.3-11.4-8.3-18.5c0-13.9,11.5-25.2,25.6-25.2c14.1,0,25.6,11.3,25.6,25.2C100.5,80.3,98.7,85.4,95.4,89.8z"/>
	<path class="st1" d="M138.5,68h-24.8c-1.9,0-3.4,1.5-3.4,3.4s1.5,3.4,3.4,3.4h24.8c1.9,0,3.4-1.5,3.4-3.4S140.3,68,138.5,68z"/>
	<path class="st1" d="M43.5,57.4c0.7-1.7-0.1-3.7-1.8-4.4l-12.8-5.4c-1.7-0.7-3.7,0.1-4.4,1.8c-0.7,1.7,0.1,3.7,1.8,4.4l12.8,5.4
		c0.4,0.2,0.9,0.3,1.3,0.3C41.7,59.4,43,58.7,43.5,57.4z"/>
</g>
</svg>
