<?xml version="1.0" encoding="utf-8"?>
<!-- Generator: Adobe Illustrator 28.0.0, SVG Export Plug-In . SVG Version: 6.00 Build 0)  -->
<svg version="1.1" id="Layer_1" xmlns="http://www.w3.org/2000/svg" xmlns:xlink="http://www.w3.org/1999/xlink" x="0px" y="0px"
	 viewBox="0 0 150 150" style="enable-background:new 0 0 150 150;" xml:space="preserve">
<style type="text/css">
	.st0{fill:#FEEBD0;}
	.st1{fill:#371116;}
	.st2{fill-rule:evenodd;clip-rule:evenodd;fill:#371116;}
	.st3{fill:#3E000A;}
</style>
<circle class="st0" cx="75" cy="75" r="75"/>
<path class="st1" d="M101.3,52.8l22.5-21c2.5-2.3,3-5.4,1.4-7v0c-1.6-1.6-4.6-1.1-7,1.4L99.1,46.7c-0.6-12.4-9.3-22.7-20.8-25.8
	c0.1-0.5,0.2-1,0.2-1.5c0-1.3-0.4-2.5-1-3.5c2.1-2,5.4-3.6,10.2-2.8c1.5,0.2,2.9-0.8,3.1-2.2c0.2-1.5-0.8-2.9-2.2-3.1
	c-7.3-1.2-12.5,1.7-15.7,5.1c-0.4-0.1-0.7-0.1-1.1-0.1c-3.7,0-6.7,3-6.7,6.7c0,0.4,0.1,0.7,0.1,1.1c-12.8,2.7-22.4,14.1-22.4,27.6
	c0,1.3,0.1,2.6,0.3,4c-11.3,3.3-19.1,13.6-19.1,25.7c0,3.8,0.8,7.4,2.2,10.7c1.8,22,19.3,39.5,41.3,41.3c0.1,0,0.2,0.1,0.3,0.1v4
	c-6.5,0.4-11.9,2.2-15.1,4.5c-1.7,1.3-0.8,4.1,1.4,4.1h34c2.2,0,3.1-2.8,1.4-4.1c-3.1-2.4-8.6-4.1-15.1-4.5v-4
	c0.1,0,0.2-0.1,0.3-0.1c21.8-1.7,39.2-18.9,41.2-40.6c1.6-3.5,2.6-7.3,2.6-11.4c0-0.8,0-1.7-0.1-2.5c0-0.3-0.1-0.7-0.1-1
	c-0.1-0.5-0.1-0.9-0.2-1.4c-0.1-0.4-0.2-0.8-0.3-1.3c-0.1-0.3-0.2-0.6-0.2-0.9c-0.1-0.5-0.3-1-0.4-1.5c0-0.1-0.1-0.3-0.2-0.4
	c-2.4-6.7-7.4-12.2-13.8-15.3c0,0-0.1,0-0.1-0.1C102.4,53.3,101.9,53,101.3,52.8z M110.4,70.9c0.2,0.4,0.3,0.9,0.5,1.4
	c0.1,0.2,0.1,0.4,0.1,0.6c0.1,0.4,0.2,0.8,0.3,1.2c0.1,0.3,0.1,0.6,0.1,0.9c0,0.3,0.1,0.6,0.1,0.9c0.1,0.6,0.1,1.3,0.1,1.9
	c0,2.2-0.4,4.3-1,6.3h-38c-0.7-2-1-4.1-1-6.3c0-3.6,1-7,2.6-9.9c1.3,0,3.2,0.6,4.7,3.4c1.4,2.7,1.6,7.4,6,7.4c4.4,0,4-13.1,9-13.4
	c4-0.2,2.1,5.1,6,5.3c3.9,0.2,2.9-6.2,5.6-5.8c1.6,0.3,3,2.1,3.8,3.4c0.1,0.3,0.3,0.5,0.4,0.8c0,0,0,0.1,0,0.1
	c0.2,0.5,0.4,1,0.6,1.5C110.4,70.7,110.4,70.8,110.4,70.9z M32.5,84.1c-0.7-2-1-4.1-1-6.3c0-2.6,0.5-5,1.4-7.2
	c0.9,1.1,2,1.9,3.6,1.9c4.2,0,4-5.9,8.2-5c4.2,1,4,7.6,10.7,7.6c5.9,0,4.8-5.7,11.1-6.3c-1,2.8-1.6,5.8-1.6,9c0,2.2,0.3,4.3,0.8,6.3
	H32.5z M52.4,37.4c2.3,1.1,0.3,8.2,4.8,8.5c5.4,0.4,2.3-8,7.4-9.3c5.2-1.2,1.9,11.6,10.1,11.8c8.7,0.2,6.9-12.9,10.1-13.8
	c2.2-0.7,3,0.5,3.9,1.5c2.3,3.4,3.7,7.6,3.7,12c0,0.9-0.1,1.9-0.2,2.8c-0.2,0-0.4,0-0.6,0c-8,0-15.1,3.5-20,9
	c-5.1-5.7-12.3-9-20.1-9c-0.6,0-1.2,0.1-1.8,0.1c-0.1-1-0.2-1.9-0.2-2.9C49.5,44.2,50.6,40.6,52.4,37.4z"/>
</svg>
