<?xml version="1.0" encoding="utf-8"?>
<!-- Generator: Adobe Illustrator 28.0.0, SVG Export Plug-In . SVG Version: 6.00 Build 0)  -->
<svg version="1.1" id="Layer_1" xmlns="http://www.w3.org/2000/svg" xmlns:xlink="http://www.w3.org/1999/xlink" x="0px" y="0px"
	 viewBox="0 0 150 150" style="enable-background:new 0 0 150 150;" xml:space="preserve">
<style type="text/css">
	.st0{fill:#FEEBD0;}
	.st1{fill:#371116;}
	.st2{fill-rule:evenodd;clip-rule:evenodd;fill:#371116;}
	.st3{fill:#3E000A;}
</style>
<circle class="st0" cx="75" cy="75" r="75"/>
<g>
	<path class="st1" d="M57.7,91.1c4.7-0.3,8.8-3.3,10.4-7.7c2.1-5.6-0.3-11.8-5.4-14.7c-0.5-4.5-3.4-8.3-7.7-9.9h0
		c-5-1.9-10.6-0.2-13.7,4c-0.2-0.1-0.4-0.2-0.6-0.3c-3-1.1-6.2-1-9.1,0.3c-2.9,1.3-5.1,3.7-6.3,6.7c-1.1,3-1,6.2,0.3,9.1
		c1.3,2.9,3.7,5.1,6.7,6.3c0.9,0.3,1.9,0.6,2.9,0.7c0,5,3,9.4,7.7,11.2c1.4,0.5,2.8,0.8,4.2,0.8C51.5,97.6,55.6,95.1,57.7,91.1z"/>
	<path class="st1" d="M108.4,101.4c0,0,0,0.1,0.1,0.3C108.5,101.6,108.4,101.5,108.4,101.4c0-0.1,0-0.1-0.1-0.2
		c-0.3,1.7-0.7,3.1-1.3,4.1c-2,3.6-4.3,6-2.5-1.6c1.5-6.3,0-12.4,0-12.4s-2.6-7.6-7.5-14.6c-4.2-6.1-11.2-12.6-11.7-15.5
		c-0.5-2.9-2.7-8.4-6.8-15.7C74.6,38.2,64,27.9,62.2,25.6c-0.2-0.2-0.4-0.6-0.6-1c1.4,7.9-3.6,11.9-3.2,9.2c2-13.3-1.7-23.9-4.5-26
		C51,5.7,43.1,13.4,41.4,15c-1.6,1.6,0.3,4.5,0.3,4.5S53,30.7,55.5,36.6c1,2.5,3.8,10.3,7.9,17.4c4.1,7.1,13.2,19.8,17.8,25
		c0,0-0.5-0.8-0.5-0.8c-0.1-1.6,0.1-3.7,0.6-5.2c2-6,4.9-7,3.9-2.8c-0.8,3.5-2.4,9.2,0.6,19.8c0.4,1.4,0.8,2.8,1.2,4
		c0.8,2,1.6,3.8,2.4,5.1c3.3,5.3,14.3,15.7,14.3,15.7s0.4,3.7,3.4,3.5c1.4-0.1,9.7-6.2,10-7.9C117.6,107.7,108.4,101.4,108.4,101.4z
		"/>
	<path class="st1" d="M142.7,113.1c0,0-10-12.4-11.7-18.5c-0.7-2.6-2.6-10.7-5.9-18.2c-3.3-7.5-10.9-21.1-14.8-26.8
		c0,0,0.4,0.9,0.4,0.9c-0.1,1.6-0.5,3.7-1.1,5.1c-2.7,5.7-5.7,6.4-4.2,2.3c1.2-3.4,3.4-8.8,1.6-19.7c-0.2-1.5-0.5-2.8-0.8-4.2
		c-0.6-2.1-1.2-4-1.8-5.3c-2.6-5.6-12.4-17.2-12.4-17.2s0-3.7-3-3.8c-1.4-0.1-10.3,5.1-10.8,6.7c-0.8,2.7,7.6,9.9,7.6,9.9
		c0,0.1,0,0.1,0,0.2c0.5-1.6,1.1-3,1.7-3.9c2.4-3.3,4.9-5.5,2.3,1.9c-2.2,6.1-1.4,12.3-1.4,12.3s1.8,7.8,5.8,15.3
		c3.5,6.5,9.7,13.8,9.9,16.7c0.2,2.9,1.7,8.7,4.9,16.4c3.2,7.7,12.6,19.1,14.1,21.6c0.1,0.2,0.3,0.6,0.5,1c-0.5-8,4.9-11.4,4.2-8.8
		c-3.5,13-1,23.9,1.5,26.3c2.6,2.5,11.4-4.3,13.2-5.7C144.3,116.2,142.7,113.1,142.7,113.1z"/>
	<path class="st1" d="M45.4,111.6c-2.1-4.9-7.2-7.8-12.4-7.2c-0.1-0.2-0.2-0.4-0.2-0.6c-1.4-3.3-4.2-5.8-7.6-6.8
		c-3.4-1-7.1-0.4-10.2,1.6c-3.9,2.6-5.9,7.6-5,12.2c0.1,0.6,0.3,1.2,0.5,1.8c-2.4,1.5-3.9,4.1-3.9,7c0,2.4,1,4.6,2.7,6.1
		c-0.1,1.9,0.1,3.8,0.9,5.6c2.6,6.1,9.6,8.9,15.7,6.3c0.3-0.1,0.6-0.3,0.9-0.4c2.1,1.6,4.6,2.4,7.2,2.4c1.6,0,3.2-0.3,4.6-0.9
		c2.9-1.2,5.2-3.6,6.4-6.5c1.2-3,1.2-6.2-0.1-9.2c-0.1-0.2-0.2-0.5-0.3-0.7C46.6,119.1,46.9,115.1,45.4,111.6z"/>
	<path class="st1" d="M88.5,115c0-3.8-2.6-7-6.1-8c-1.5-4-5.4-6.8-9.9-6.8c-5.8,0-10.6,4.7-10.6,10.6c0,1.4,0.3,2.6,0.7,3.8
		c-4.7,1.1-8.1,5.3-8.1,10.3c0,5.7,4.5,10.3,10.2,10.6c1.5,4.1,5.4,7,9.9,7c5.6,0,10.1-4.3,10.5-9.8c3.8-1.6,6.5-5.4,6.5-9.7
		c0-3-1.2-5.6-3.2-7.6C88.5,115.3,88.5,115.2,88.5,115z"/>
</g>
</svg>
