<?xml version="1.0" encoding="utf-8"?>
<!-- Generator: Adobe Illustrator 28.0.0, SVG Export Plug-In . SVG Version: 6.00 Build 0)  -->
<svg version="1.1" id="Layer_1" xmlns="http://www.w3.org/2000/svg" xmlns:xlink="http://www.w3.org/1999/xlink" x="0px" y="0px"
	 viewBox="0 0 150 150" style="enable-background:new 0 0 150 150;" xml:space="preserve">
<style type="text/css">
	.st0{fill:#FEEBD0;}
	.st1{fill:#371116;}
	.st2{fill-rule:evenodd;clip-rule:evenodd;fill:#371116;}
	.st3{fill:#3E000A;}
</style>
<circle class="st0" cx="75" cy="75" r="75"/>
<path class="st1" d="M138.9,47.2v-5c0-1.3-1-2.3-2.3-2.3H13.4c-1.3,0-2.3,1-2.3,2.3v5c0,1.3,1,2.3,2.3,2.3h11.1c-1.1,0-2,0.8-2.2,2
	l-3.1,15.8c-0.3,1.5,0.8,3,2.3,3h0.7c-4.4,3.5-7.4,8.7-8.1,14.6l-0.5,4.5c-0.4,4,0.7,8,3,11h-3.3c-1.3,0-2.3,1-2.3,2.3v5
	c0,1.3,1,2.3,2.3,2.3h123.1c1.3,0,2.3-1,2.3-2.3v-5c0-1.3-1-2.3-2.3-2.3h-3.7c2.1-2.9,3.1-6.6,2.7-10.3l-0.6-5.2
	c-0.7-5.9-3.7-11.1-8.1-14.6h1.6c1.5,0,2.5-1.4,2.3-3l-3.1-15.8c-0.2-1.1-1.1-1.9-2.2-2h11.1C137.9,49.6,138.9,48.5,138.9,47.2z
	 M127.9,91c0.2,2-0.3,4-1.6,5.3c-1.1,1.2-2.6,1.8-4.2,1.8H27.7c-1.8,0-3.5-0.7-4.7-2c-1.3-1.5-2-3.6-1.7-5.8l0.5-4.5
	c0.7-6.7,6.5-12.2,12.9-12.2H62c2.6,0.7,5.5,1.9,8.1,3.8c7.5,5.3,3.7,16,12.5,16.2c8.6,0.2,5.7-17.1,11.6-17.1
	c3.4,0,2.5,8.5,9.3,8.2c5.4-0.2,6.7-8,9.7-11.1h1.1c6.4,0,12.1,5.5,12.9,12.2L127.9,91z"/>
</svg>
