<?xml version="1.0" encoding="utf-8"?>
<!-- Generator: Adobe Illustrator 28.0.0, SVG Export Plug-In . SVG Version: 6.00 Build 0)  -->
<svg version="1.1" id="Layer_1" xmlns="http://www.w3.org/2000/svg" xmlns:xlink="http://www.w3.org/1999/xlink" x="0px" y="0px"
	 viewBox="0 0 150 150" style="enable-background:new 0 0 150 150;" xml:space="preserve">
<style type="text/css">
	.st0{fill:#FEEBD0;}
	.st1{fill:#371116;}
	.st2{fill-rule:evenodd;clip-rule:evenodd;fill:#371116;}
	.st3{fill:#3E000A;}
</style>
<circle class="st0" cx="75" cy="75" r="75"/>
<path class="st2" d="M45.4,108.6c-0.7,0.8-2.5,1.1-3.4,1.7c-2.7,1.7-5.5,3.1-8.3,4.9c-6.6,4.1-13.5,7.7-20.2,11.9
	c-1,0.6-2.1,1.4-3.2,2.2v10.1h129.4v-8.6c-0.6-1-1.2-2-1.9-3c-1.1-1.5-2.2-3.3-3.6-4.4c-4.2-3.2-10-4.8-15.6-6.6
	c-2.4-0.8-5.7-0.8-7.5-2.2c-0.1,0-0.2,0-0.2,0c0.1,3.1,0.7,12.3-0.5,14.1c-1,1.4-3.7,1.8-5.6,1c-1.3-0.5-6.9-5.6-7.8-6.8
	c-2.8,1.5-1.3,3.1-6.6,2.7c-0.9-0.9-1.8-1.7-2.7-2.7c-0.2-0.3-2,1.1-2.4,1.5c-1.5,1.5-2.9,2.9-4.4,4.4c-0.9,0.7-2.2,0.8-3.2,1.5
	c-2.2,0-2.9-0.6-4.1-1.5c-0.5-2-1.3-13,0-14.6c0.3-0.8,0.8-1,1.2-1.7c6.4-0.8,6.6,2.5,10,5.1c0.9,0.7,1.9,1.1,2.7,1.9
	c1.8-1.9,2.1-3.3,6.1-3.2c1.1,1.1,2.4,1.1,2.9,2.9c0.2,0,0.3,0,0.5,0c2.1-2.3,4.9-4,7-6.3c0.1-0.1,0.2-0.2,0.2-0.2
	c-2-0.5-3.6-1.3-5.1-2.2c0.1-4.9,3.6-2.6,7.3-3.6c1.6-0.4,2.9-1.9,3.6-3.2c1.4-2.3,1.8-5.9,2.4-8.8c0.5-2.4-0.7-5.9,0.5-7.8
	c0-0.8,0-1.6,0-2.4c-2,1.3-4.3,1.5-7.8,1c-3-0.4-9.5,0.4-12.6,1.2c-1.8,0.5-5.1,1.3-7.3,0.5c-3-1.1-2.4-3.2-3.9-5.6
	c0-0.4,0-0.8,0-1.2c1.1,0.7,2.1,1.8,3.6,2.2c5.4,1.5,9.6-4.6,12.9-5.8c2.2-0.8,3.3,0.7,4.6,1.2c0.3,0.2,1.4-0.9,1.7-1
	c0.6,0,1.3,0,1.9,0c1.6,1.7,3.2,3.5,6.6,3.4c0.3-0.3,0.6-0.5,1-0.7c0.1-3.1,1.5-6.7,0.7-10.2c-0.5-2.3-1.3-4.5-2.2-6.3
	c-0.5-1.1-0.7-1.9-1.5-2.7c0-3.1,1.5-3.5,2.4-5.3c0.3-0.6,0.2-1.2,0.5-1.7c-0.3-3.1-2.6-5.6-3.6-8.3c-0.3-1.4-0.6-2.8-1-4.1
	c-2-6-4.1-11-8.8-14.3c-1.3-1-2.4-2.3-4.1-2.9C95,4.2,68.7,10.8,56.6,16.2C46.6,20.6,39,29,35.4,39.8c-5.2,15.6,1.3,34.2,7.5,44.5
	c2.2,3.7,3.6,8,6.6,10.9c-0.3,3.4-2.1,6.8-3.2,9.7C46,105.8,45.9,108,45.4,108.6z"/>
</svg>
