<?xml version="1.0" encoding="utf-8"?>
<!-- Generator: Adobe Illustrator 28.0.0, SVG Export Plug-In . SVG Version: 6.00 Build 0)  -->
<svg version="1.1" id="Layer_1" xmlns="http://www.w3.org/2000/svg" xmlns:xlink="http://www.w3.org/1999/xlink" x="0px" y="0px"
	 viewBox="0 0 150 150" style="enable-background:new 0 0 150 150;" xml:space="preserve">
<style type="text/css">
	.st0{fill:#FEEBD0;}
	.st1{fill:#371116;}
	.st2{fill-rule:evenodd;clip-rule:evenodd;fill:#371116;}
	.st3{fill:#3E000A;}
</style>
<circle class="st0" cx="75" cy="75" r="75"/>
<path class="st1" d="M123.5,58.7c0-27.9-23.6-50.4-51.9-48.4C47.2,12,27.6,32,26.5,56.5c-0.5,10.8,2.5,20.8,8,29l0,0L71,137.7
	c2,2.8,6.1,2.8,8.1,0l36.5-52.2l0,0C120.6,77.8,123.5,68.6,123.5,58.7z M75.7,85c-14.5,0-26.3-11.8-26.3-26.3
	c0-14.5,11.8-26.3,26.3-26.3s26.3,11.8,26.3,26.3C101.9,73.3,90.2,85,75.7,85z"/>
</svg>
