<?xml version="1.0" encoding="utf-8"?>
<!-- Generator: Adobe Illustrator 28.0.0, SVG Export Plug-In . SVG Version: 6.00 Build 0)  -->
<svg version="1.1" id="Layer_1" xmlns="http://www.w3.org/2000/svg" xmlns:xlink="http://www.w3.org/1999/xlink" x="0px" y="0px"
	 viewBox="0 0 150 150" style="enable-background:new 0 0 150 150;" xml:space="preserve">
<style type="text/css">
	.st0{fill:#FEEBD0;}
	.st1{fill:#371116;}
	.st2{fill-rule:evenodd;clip-rule:evenodd;fill:#371116;}
	.st3{fill:#3E000A;}
</style>
<circle class="st0" cx="75" cy="75" r="75"/>
<g>
	<path class="st1" d="M114.5,36c-0.1,0-0.2,0-0.3,0c-4.5-7.6-12.6-12.7-21.8-12.7c-0.3,0-0.5,0-0.8,0c-1.3,0-2.4-0.8-2.7-2
		c-0.5-1.9-1.6-4.6-4-7.6c-2.4-3-5.7-4.5-8-5.2c-1.4-0.5-2.9,0.3-3.4,1.7C72.2,14.6,68.2,23,59.8,21c-9.7-2.3-16.8-2.1-23,3.8
		c-4,3.8-4.5,9.2-4.3,12.5c0.1,1.3-0.7,2.5-2,2.8c-1.3,0.3-2.5,0.8-3.7,1.5c-1.4,0.7-2.8,1.8-4,3.4c-2.2,2.7-3.5,6.1-3.5,9.9
		c0,2.2,0.5,4.3,1.3,6.2c0.2,0.5,0.6,0.9,1.1,1.2c0.3,0.2,0.6,0.4,0.9,0.7l1.7,2c0.8,1,2.2,1.2,3.4,0.6l2.7-1.5
		c1.5-0.9,3.6-0.6,4.8,0.5l2.4,2.2c0.9,0.8,2.3,0.9,3.3,0.3l2.9-1.8c1.5-1,3.6-0.8,4.9,0.3l2.6,2.1c0.9,0.8,2.3,0.8,3.3,0.1l1.2-0.8
		c2.3-1.6,5.9-1.5,8.1,0.2l1.1,0.8c1,0.7,2.3,0.8,3.3,0l1.2-0.9c2.4-1.7,5.6-1.8,8-0.1l1.6,1.1c0.9,0.7,2.2,0.7,3.2,0l1.6-1.2
		c2.4-1.7,5.5-1.8,7.9-0.1l1.7,1.1c1,0.6,2.2,0.6,3.2-0.1l3.1-2.3c1.3-1,3.4-1.1,4.8-0.2l3.3,2.1c1,0.6,2.3,0.6,3.2-0.2l2.9-2.4
		c1.3-1.1,3.3-1.2,4.8-0.3l3,1.7c1,0.6,2.2,0.5,3.1-0.2c3.7-3.1,6-7.8,6-13.1C130.6,43.6,123.4,36,114.5,36z"/>
	<path class="st1" d="M118.2,72.1c-0.8-0.5-1.9-0.4-2.6,0.2l-3.3,2.7c-1.3,1.1-3.4,1.2-4.9,0.3l-3.7-2.4c-0.8-0.5-1.9-0.5-2.6,0.1
		L99,74.7c-2.2,1.7-5.2,1.8-7.5,0.2l-2.3-1.5c-0.8-0.5-1.8-0.5-2.6,0l-3.5,2.5c-0.7,0.5-1.6,0.8-2.5,0.8c-0.9,0-1.7-0.2-2.4-0.7
		l-3.4-2.4c-0.8-0.6-1.9-0.6-2.7,0l-1.8,1.3c-2.3,1.7-5.5,1.7-7.7-0.1l-1.7-1.3c-0.8-0.6-1.9-0.6-2.7-0.1L55,75.7
		c-1.5,1-3.6,0.9-5-0.2l-3-2.4c-0.8-0.6-1.9-0.7-2.7-0.2L41,75c-1.5,1-3.7,0.8-5-0.4l-2.9-2.6c-0.7-0.7-1.8-0.8-2.6-0.3l-1.6,0.9
		c-0.4,0.9-0.8,1.7-1.3,2.6l8.4,50c0.1,0.4,0.2,0.7,0.3,1.1c0.1,5.3,17.4,9.5,38.8,9.5c21.4,0,38.8-4.3,38.8-9.6c0-0.1,0-0.2,0-0.3
		c0.1-0.2,0.2-0.5,0.2-0.8l8.5-50.7c-0.2-0.1-0.4-0.2-0.5-0.2L118.2,72.1z"/>
</g>
</svg>
