<svg width="311" height="359" viewBox="0 0 311 359" fill="none" xmlns="http://www.w3.org/2000/svg">
<path d="M142.406 345.935C109.271 357.016 71.7998 319.333 94.9468 260.727C102.699 241.101 113.22 222.291 121.781 203.297C138.221 167.068 138.852 142.74 136.8 120.568C136.672 119.278 136.925 117.528 138.696 116.941C140.437 116.365 141.675 117.587 142.353 118.728C154.069 137.697 169.205 156.733 204.078 175.822C222.319 185.834 242.062 194.548 260.051 205.609C313.768 238.541 306.43 291.175 273.315 302.216L142.376 345.945L142.406 345.935Z" fill="#3F000B"/>
<path d="M16.9439 97.9949C2.46427 91.3539 1.74193 67.1349 27.7118 54.849C36.4087 50.7352 45.7727 47.7555 54.542 44.1039C71.305 37.1732 79.0981 29.275 85.3265 21.2577C85.6861 20.7886 86.3156 20.2853 87.0878 20.642C87.8468 20.9926 87.8777 21.7851 87.7476 22.3761C85.7333 32.3401 84.8363 43.392 90.4898 60.6142C93.4388 69.6312 97.2919 78.6846 99.83 87.9723C107.439 115.674 88.5909 130.901 74.1305 124.253L16.9308 97.9889L16.9439 97.9949Z" fill="#3F000B"/>
<path d="M196.353 128.795C187.092 133.623 174.259 124.259 178.338 105.87C179.705 99.7121 181.927 93.6645 183.561 87.6548C186.712 76.1868 185.755 68.9752 184.107 62.526C184.009 62.1511 184.002 61.6228 184.497 61.3663C184.984 61.1142 185.406 61.4168 185.66 61.7218C190.01 66.7713 195.373 71.6796 206.566 75.6764C212.421 77.7747 218.659 79.4194 224.49 81.8394C241.895 89.0371 242.202 104.92 232.945 109.736L196.345 128.799L196.353 128.795Z" fill="#3F000B"/>
</svg>
