<?xml version="1.0" encoding="UTF-8"?>
<svg id="Layer_1" data-name="Layer 1" xmlns="http://www.w3.org/2000/svg" viewBox="0 0 599.76 164.88">
  <defs>
    <style>
      .cls-1 {
        fill: #f5f2f3;
        stroke-width: 0px;
      }
    </style>
  </defs>
  <g>
    <g>
      <path class="cls-1" d="M79.51,110.77c-7.51,13.07-17.01,22.78-28.88,22.78-10.38,0-13.81-8.43-7.41-24.56l.65-1.48c1.85-4.73,3.24-7.97,3.24-9.36,0-1.2-1.02-1.95-2.5-1.95-2.13,0-6.4,2.04-10.19,6.39l-10.22,25.24c-1.1,2.73-3.75,4.51-6.69,4.51h0c-5.52,0-9.28-5.58-7.21-10.69l24.24-62.05c1.19-2.94,4.04-4.86,7.21-4.86h0c5.34,0,8.99,5.4,6.99,10.35l-8.85,24.06s7.41-6.12,16.03-6.12c6.4,0,9.45,3.43,9.45,8.34,0,2.5-.84,5.38-2.78,10.19l-4.08,10.1c-4.26,10.47-2.78,11.77-1.21,11.77,3.43,0,9.45-5.47,16.12-17.15,2.13.19,5.24,2.61,6.08,4.47Z"/>
      <path class="cls-1" d="M128.85,110.28c-6.3,11.12-17.89,23.26-36.61,23.26-13.99,0-20.67-6.86-20.67-17.24,0-11.96,8.8-33.27,30.12-33.27,10.94,0,21.22,6.49,15.1,20.57-3.52,7.88-10.84,14.27-29.66,11.77,0,0-1.85,8.06,9.92,8.06,7.97,0,20.04-7.13,25.97-17.8,2.13.19,4.98,2.79,5.82,4.64ZM89.93,106.48c8.34,1.39,10.94-2.13,12.6-6.3.65-1.67,1.48-4.17-1.67-4.17-6.4,0-10.94,10.47-10.94,10.47Z"/>
      <path class="cls-1" d="M122.87,105.92c1.85-3.34,4.36-8.34,7.04-14.27-1.67-1.76-2.45-2.87-2.45-5.18,0-4.11,3.63-8.55,7.06-10.52.99-.57,2.21-.54,3.22,0l2.17,1.15c1.52.81,2.21,2.62,1.6,4.23l-1.63,4.32c3.8,3.15,16.59,8.8,16.59,16.03,0,1.11-.28,2.5-1.11,4.63l-2.04,5.28c-4.26,10.38-2.13,11.86-.83,11.86,2.22,0,6.49-5.28,13.44-17.15,2.13.19,5.35,2.57,6.19,4.42-7.04,12.33-15.27,22.83-26.02,22.83-7.14,0-15.94-5.28-9.27-21.78l2.87-7.23c.74-1.85.83-2.78.83-3.24,0-1.85-1.91-3.38-4.33-5.51-2.5,6.12-4.94,10.24-7.35,14.5-2.13-.19-5.15-2.51-5.98-4.36Z"/>
      <path class="cls-1" d="M165.92,106.3c2.75-4.71,7.03-12.76,10.45-19.77,1.58-3.24,5.17-4.96,8.69-4.17l1.58.35c3.74.84,6.32,4.28,6.05,8.11-.78,11.05.58,21.93.66,26.87,0,2.6-.19,3.43-.28,4.17,4.91-4.26,8.16-8.34,12.33-15.57,2.13.19,5.42,2.9,6.26,4.75-6.77,12.23-17.1,22.5-32.76,22.5-12.61,0-19.56-7.96-19.46-7.68l5.19-7.42c.49-.31,3.44,1.93,7.44,3.58,1,.41,4.93,2.17,6.26,2.23,1.21.06,5.21-1.35,2.13-10.75-1.15-3.5-2.28-10.31-.96-16.76-2.15,5.64-6.03,11.57-7.7,14.53-2.13-.19-5.04-3.13-5.87-4.99Z"/>
      <path class="cls-1" d="M267.95,110.86c-7.51,13.07-16.77,22.68-28.63,22.68-10.38,0-13.81-8.43-7.41-24.56l.65-1.48c1.85-4.73,3.24-7.97,3.24-9.36,0-1.2-1.02-1.95-2.5-1.95-2.13,0-6.4,2.04-10.19,6.39l-10.22,25.24c-1.1,2.73-3.75,4.51-6.69,4.51h0c-5.52,0-9.28-5.58-7.21-10.69l25.12-62.07c1.19-2.94,4.04-4.86,7.21-4.86h0c5.34,0,8.99,5.4,6.99,10.35l-9.73,24.08s7.41-6.12,16.03-6.12c6.4,0,9.45,3.43,9.45,8.34,0,2.5-.84,5.38-2.78,10.19l-4.08,10.1c-4.26,10.47-2.78,11.77-1.21,11.77,3.43,0,9.45-5.47,16.12-17.15,2.13.19,5,2.71,5.83,4.56Z"/>
      <path class="cls-1" d="M317.53,110.28c-6.3,11.12-17.89,23.26-36.61,23.26-13.99,0-20.67-6.86-20.67-17.24,0-11.96,8.8-33.27,30.12-33.27,10.94,0,21.22,6.49,15.1,20.57-3.52,7.88-10.84,14.27-29.66,11.77,0,0-1.85,8.06,9.92,8.06,9.64,0,19.74-5.47,26.23-17.15,2.13.19,4.73,2.13,5.56,3.99ZM278.61,106.48c8.34,1.39,10.94-2.13,12.6-6.3.65-1.67,1.48-4.17-1.67-4.17-6.4,0-10.94,10.47-10.94,10.47Z"/>
      <path class="cls-1" d="M373.14,111.8c-9.55,16.68-19.93,21.1-31.52,26.56,0,0-1.48,3.52-1.95,4.82-3.8,9.45-9.64,19.18-21.41,19.18-8.53,0-12.05-5.38-12.14-10.66.09-6.86,6.02-11.49,10.66-13.62,3.43-1.67,8.62-3.8,10.66-4.91l2.13-5.38s-4.17,5.75-11.31,5.75c-7.69,0-14.64-6.86-7.78-24l8.23-20.43c1.19-2.94,4.04-4.87,7.21-4.87h0c5.34,0,8.98,5.39,6.99,10.35l-6.87,17.09c-3.71,9.17-2.41,10.38-.56,10.38,2.97,0,5.56-3.06,11.77-13.44l7.94-19.53c1.19-2.93,4.04-4.85,7.2-4.85h0c5.34,0,8.98,5.4,6.97,10.35l-13.78,33.95c8.71-4.45,14.37-10.75,20.94-22.24,2.13.19,5.75,3.65,6.59,5.5ZM316.05,152.64c1.85,0,4.73-2.22,7.78-10.29-2.78,1.3-4.54,2.04-7.04,3.52-2.04,1.3-3.15,2.78-3.15,4.17s.93,2.5,2.41,2.6Z"/>
      <path class="cls-1" d="M401.64,111.05c-6.95,12.33-17.2,22.5-28.23,22.5-8.71,0-15.1-7.23-8.34-24l20.85-49.93c1.19-2.94,4.04-4.87,7.21-4.87h0c5.33,0,8.98,5.39,6.98,10.34l-19.48,46.58c-4.26,10.66-2.69,11.77-1.21,11.77,3.43,0,9.45-5.47,16.13-17.15,2.13.19,5.25,2.9,6.08,4.75Z"/>
      <path class="cls-1" d="M458.83,110.72c-7.23,12.6-16.65,22.83-28.51,22.83-10.1,0-11.68-7.78-11.68-7.78,0,0-6.67,7.78-15.01,7.78-7.32,0-11.03-5.75-11.03-12.7,0-9.92,7.6-37.81,25.86-37.81,9.45,0,11.68,7.51,11.68,7.51l.61-1.48c1.2-2.91,4.04-4.82,7.19-4.82h0c5.36,0,9.02,5.42,7.02,10.39l-6.85,17.04c-4.36,10.84-2.6,11.77-1.21,11.77,3.43,0,9.36-5.47,16.13-17.15,2.13.19,4.97,2.57,5.81,4.42ZM420.49,114.55l5.47-13.44s-.19-4.73-3.99-4.73c-6.95,0-13.34,15.38-13.34,20.85,0,2.41,1.11,3.24,2.97,3.24,5,0,8.9-5.93,8.9-5.93Z"/>
      <path class="cls-1" d="M516.06,110.77c-7.41,12.88-17.17,22.78-29.03,22.78-10.19,0-14.18-7.97-7.6-24.56l.65-1.48c1.76-4.36,3.24-7.97,3.24-9.36,0-1.2-1.02-1.95-2.41-1.95-2.13,0-6.39,2.04-10.19,6.49l-11.02,25.96c-1.11,2.73-3.76,4.51-6.7,4.51h0c-5.52,0-9.28-5.58-7.21-10.7l13.98-33.35c1.19-2.94,4.04-4.86,7.21-4.86h5.88c2.53,0,4.27,2.56,3.34,4.91h0c-.93.93,6.77-6.12,16.03-6.12,6.39,0,9.45,3.43,9.45,8.34,0,2.5-.83,5.38-2.78,10.19l-4.08,10.1c-4.17,10.47-2.78,11.77-1.11,11.77,3.34,0,9.27-5.47,16.03-17.15,2.13.19,5.49,2.61,6.32,4.47Z"/>
      <path class="cls-1" d="M563.11,117.98c.97.81,1.32,1.81.78,2.95-6.15,13.2-9.42,13.29-19.51,12.18-10.04-1.11-11.68-7.36-11.68-7.36,0,0-6.67,7.78-15.2,7.78-7.32,0-11.03-6.02-11.03-12.6,0-10.38,8.9-37.9,26.14-37.9,9.17,0,11.58,7.51,11.58,7.51l12.24-30.95c1.19-2.93,4.04-4.85,7.21-4.85h0c5.34,0,8.98,5.4,6.98,10.35l-18.54,46.58c-4.26,10.66-3.14,13.18-1.69,13.48,1.45.3,2.39,1.02,8.55-8.98,1.06-1.72,2.05-.02,3.65,1.22.07.06.45.52.52.58ZM534.47,114.55l5.47-13.44s-.09-4.73-3.99-4.73c-6.86,0-13.25,15.38-13.25,20.85,0,2.41,1.11,3.24,2.97,3.24,5,0,8.8-5.93,8.8-5.93Z"/>
    </g>
    <path class="cls-1" d="M545.73,132.27c5.48,2.67,11.87.96,17.16-4.25,6.2-6.15,16.15-23.81,26.66-26.15l-12.85-6.26c-9.67,2.18-18.92,20.92-25.02,26.95-4.7,4.65-9.08,5.15-11.33,5.51-.98.17-1.16.21-1.3.5-.13.26.06.47.28.58l6.39,3.12Z"/>
  </g>
  <g>
    <path class="cls-1" d="M403.66,48.83c1.63,2.23,5.77,1.52,6.96-3.31.4-1.62.59-3.32.9-4.93.6-3.08,1.67-4.68,2.82-6.02.07-.08.13-.2.04-.32-.08-.12-.22-.1-.32-.06-1.62.69-3.47,1.22-6.59.85-1.63-.19-3.3-.53-4.97-.64-4.97-.34-6.91,3.39-5.28,5.62l6.43,8.81Z"/>
    <path class="cls-1" d="M319.39,74.1c-.29,2.74-4.23,4.2-7.68.61-1.16-1.2-2.17-2.58-3.25-3.82-2.06-2.37-3.79-3.22-5.45-3.8-.1-.04-.21-.11-.2-.25.02-.14.14-.19.25-.21,1.75-.22,3.62-.68,6.14-2.56,1.32-.98,2.6-2.11,3.98-3.04,4.13-2.78,7.67-.52,7.38,2.23l-1.16,10.85Z"/>
    <path class="cls-1" d="M320.93,50.32c-1.3,2.43-5.5,2.31-7.35-2.31-.62-1.55-1.04-3.2-1.58-4.76-1.03-2.97-2.31-4.41-3.63-5.57-.08-.07-.16-.18-.09-.31.07-.13.2-.13.31-.1,1.7.45,3.61.72,6.65-.07,1.59-.42,3.2-.99,4.83-1.33,4.87-1.03,7.31,2.39,6.01,4.83l-5.14,9.62Z"/>
    <path class="cls-1" d="M389.16,29.85c2.48,1.22,5.81-1.34,4.61-6.17-.4-1.62-1.03-3.21-1.5-4.78-.9-3.01-.7-4.93-.31-6.64.02-.1.02-.24-.11-.3-.13-.06-.24.02-.31.1-1.11,1.36-2.5,2.7-5.44,3.83-1.53.59-3.17,1.07-4.7,1.75-4.55,2.01-4.53,6.21-2.05,7.43l9.8,4.8Z"/>
    <path class="cls-1" d="M333.77,30.56c-2.39,1.38-5.89-.96-5.01-5.86.29-1.64.81-3.27,1.18-4.87.7-3.06.37-4.96-.13-6.65-.03-.1-.04-.24.09-.31s.24,0,.31.08c1.2,1.29,2.68,2.53,5.68,3.46,1.57.49,3.24.86,4.8,1.43,4.68,1.71,4.93,5.9,2.54,7.28l-9.46,5.44Z"/>
    <path class="cls-1" d="M366.8,19.9c2.75-.28,4.22-4.22.64-7.68-1.2-1.16-2.57-2.18-3.81-3.26-2.36-2.07-3.2-3.81-3.78-5.47-.03-.1-.11-.21-.25-.2s-.19.14-.21.25c-.22,1.75-.69,3.61-2.58,6.13-.99,1.32-2.12,2.59-3.06,3.97-2.79,4.12-.55,7.67,2.19,7.39l10.85-1.12Z"/>
  </g>
</svg>