<?xml version="1.0" encoding="utf-8"?>
<!-- Generator: Adobe Illustrator 28.0.0, SVG Export Plug-In . SVG Version: 6.00 Build 0)  -->
<svg version="1.1" id="Layer_1" xmlns="http://www.w3.org/2000/svg" xmlns:xlink="http://www.w3.org/1999/xlink" x="0px" y="0px"
	 viewBox="0 0 150 150" style="enable-background:new 0 0 150 150;" xml:space="preserve">
<style type="text/css">
	.st0{fill:#FEEBD0;}
	.st1{fill:#371116;}
	.st2{fill-rule:evenodd;clip-rule:evenodd;fill:#371116;}
	.st3{fill:#3E000A;}
</style>
<circle class="st0" cx="75" cy="75" r="75"/>
<path class="st1" d="M121.1,113.2c10.9-10.3,17.6-24.3,17.6-39.7c0-31.7-28.4-57.4-63.4-57.4c-35,0-63.4,25.7-63.4,57.4
	s28.4,57.4,63.4,57.4c8.2,0,16-1.4,23.1-4l23,15.2c2.3,1.5,5.3-0.5,4.8-3.2L121.1,113.2z M83.1,109.5c0,3.4-2.9,6.2-6.4,6.2h-6.3
	c-3.6,0-6.4-2.8-6.4-6.2v-3.9c0-3.4,2.9-6.2,6.4-6.2h6.3c3.6,0,6.4,2.8,6.4,6.2V109.5z M90.2,69.9c-6.2,5.9-8.4,8.8-9.1,15.1
	c-0.3,3.2-3.1,5.6-6.4,5.6h-2.5c-3.5,0-6.4-2.8-6.4-6.2c0-0.2,0-0.5,0-0.7c0-9.8,5.7-15.2,11.3-20.3c4.3-4,7.4-7.4,7.4-12.6
	c0-4.7-3.1-7.4-8.1-7.4c-4.4,0-7.9,3-10.4,6.8c-1.7,2.5-4.8,3.5-7.7,2.5l-2.5-0.9c-3.7-1.3-5.4-5.6-3.3-8.9
	c5.2-8.3,13.6-13.5,25.3-13.5c15.7,0,23.6,8.9,23.6,19.7C101.3,60.1,95.7,64.9,90.2,69.9z"/>
</svg>
