<?xml version="1.0" encoding="utf-8"?>
<!-- Generator: Adobe Illustrator 28.0.0, SVG Export Plug-In . SVG Version: 6.00 Build 0)  -->
<svg version="1.1" id="Layer_1" xmlns="http://www.w3.org/2000/svg" xmlns:xlink="http://www.w3.org/1999/xlink" x="0px" y="0px"
	 viewBox="0 0 150 150" style="enable-background:new 0 0 150 150;" xml:space="preserve">
<style type="text/css">
	.st0{fill:#FEEBD0;}
	.st1{fill:#371116;}
	.st2{fill-rule:evenodd;clip-rule:evenodd;fill:#371116;}
	.st3{fill:#3E000A;}
</style>
<circle class="st0" cx="75" cy="75" r="75"/>
<path class="st1" d="M135.2,15.7c-0.1-1.4-1.3-2.5-2.7-2.3C123.2,14.6,91.3,19.9,77,37c-14.7,17.6-11.9,35.5-1.5,45.1
	c-2.1,5.4-3.8,11.2-4.7,17.1c-1.2-1.7-2.6-3.1-4.1-4.5c3.9-8,2.3-19.2-9.1-28.1c-12.1-9.5-34.3-8.7-41.2-8.2c-1.1,0.1-2,1.1-1.8,2.3
	c1.1,6.8,5.6,28.6,17.7,38.1c12.1,9.5,24,7.8,30.7,1.1c3.4,3.3,6.3,7.9,6.9,14.4v1.2c-1.1,0.6-2,1.4-2.8,2.3
	c-0.5-0.2-1.1-0.3-1.7-0.3c-2.9,0-5.2,2.2-5.4,5c-0.5-0.1-1-0.1-1.5-0.1c-4.5,0-8.5,2.4-10.7,5.9c-3,0.8-5.3,3.5-5.3,6.8
	c0,0.5,0.1,1,0.2,1.5h68.9c0.1-0.3,0.1-0.7,0.1-1.1c0-2.5-2-4.5-4.5-4.5c-0.1,0-0.1,0-0.2,0c-1-4.6-5.1-8.1-10-8.1
	c-2,0-3.8,0.6-5.4,1.5c-1.1-1.1-2.7-1.8-4.4-1.8c-0.3,0-0.6,0-0.9,0.1c-0.6-2.2-2.4-3.8-4.7-4c-1.2-2.1-3.2-3.6-5.6-4.2
	c0-0.2,0-0.5-0.1-0.7v-4.9c0-8,1.8-15.8,4.5-23.2c11.3,6.3,27.6,4.6,41-11.5C136,57.4,135.6,25,135.2,15.7z M57.6,89.4
	c-0.9,0.9-2.3,0.8-3.2-0.1C41.6,74.2,23.6,65.2,23.4,65.1c0.8,0.3,21.4,4.5,34.4,20.6C58.7,86.9,58.6,88.4,57.6,89.4z M85.9,71.8
	c-0.7,1.5-2.5,2.1-3.9,1.3c-1.6-0.9-2.3-2.8-1.6-4.5c10.2-25,34.4-38.1,35.3-38.7C115.5,30,96.4,48,85.9,71.8z"/>
</svg>
