<?xml version="1.0" encoding="utf-8"?>
<!-- Generator: Adobe Illustrator 28.0.0, SVG Export Plug-In . SVG Version: 6.00 Build 0)  -->
<svg version="1.1" id="Layer_1" xmlns="http://www.w3.org/2000/svg" xmlns:xlink="http://www.w3.org/1999/xlink" x="0px" y="0px"
	 viewBox="0 0 150 150" style="enable-background:new 0 0 150 150;" xml:space="preserve">
<style type="text/css">
	.st0{fill:#FEEBD0;}
	.st1{fill:#371116;}
	.st2{fill-rule:evenodd;clip-rule:evenodd;fill:#371116;}
	.st3{fill:#3E000A;}
</style>
<g>
	<circle class="st0" cx="75" cy="75" r="75"/>
	<path class="st1" d="M136.5,57.5c-0.1-3.3-1.9-6.2-4.7-7.8L80.1,24c-2.9-1.7-6.5-1.7-9.4,0l-52,25.3c-2.8,1.6-4.7,4.5-4.8,7.7
		l-1.4,33.1c-0.2,3.7,1.8,7.1,5.1,8.8l53.8,27.3c2.7,1.4,5.9,1.4,8.6,0l52.5-27.1c3.2-1.7,5.2-5,5.1-8.6L136.5,57.5z M69.6,32.7
		c0.1-1.2,2-2,4.3-1.9c1.8,0.1,3.2,0.8,3.8,1.7c0.4,0.5,0.3,1.4-0.5,2.1c-0.5-0.2-1.1-0.3-1.8-0.3c-1.6,0-2.8,0.6-3.6,1.5
		c-0.5-0.5-1.1-1-1.6-1.5C69.7,33.8,69.5,33.2,69.6,32.7C69.6,32.7,69.6,32.7,69.6,32.7z M52,41.1c0.5-0.5,1.1-0.9,1.7-1.4
		c1-0.9,1.4-1.6,1.6-2.2c0,0,0-0.1,0.1-0.1c0.1,0,0.1,0,0.1,0.1c0.2,0.7,0.5,1.4,1.6,2.3c0.5,0.5,1.2,0.9,1.7,1.4
		c0.6,0.5,0.8,1.1,0.8,1.6c-1-0.4-2.1-0.7-3.4-0.7c-1.9,0-3.5,0.6-4.7,1.4C51,42.9,51,42,52,41.1z M37.7,53.6c0,0.1-0.1,0.1-0.1,0.2
		c-0.8-1-2-1.7-3.7-1.7c-0.6,0-1.2,0.1-1.7,0.3c-0.3-1.1-0.7-1.7-1.2-2.1c0,0-0.1-0.1,0-0.1c0-0.1,0.1-0.1,0.1-0.1
		c0.7,0.1,1.4,0.2,2.7-0.4c0.7-0.3,1.3-0.6,2-0.9c0.8-0.3,1.4-0.2,1.8,0c0,0,0,0,0,0C38.8,49.4,38.8,51.5,37.7,53.6z M51.8,54
		c-0.1,0.1-0.2,0.1-0.3,0.2c-0.8-0.6-1.8-1.1-3.1-1.1c-1.2,0-2.1,0.3-2.9,0.9c-0.2-0.2-0.3-0.3-0.5-0.5c-0.6-0.6-0.8-1.2-0.7-1.7
		c0,0,0,0,0,0c0.1-1.2,2-2,4.3-1.9c1.8,0.1,3.2,0.8,3.8,1.7C52.9,52.3,52.8,53.2,51.8,54z M63.6,69.4c0,0.3-0.2,0.5-0.4,0.8
		c-1.2-1-2.9-1.6-4.9-1.6c-1.2,0-2.2,0.2-3.1,0.6c-0.2-0.6,0-1.3,0.9-2c0.6-0.5,1.2-0.9,1.8-1.3c1.1-0.8,1.5-1.5,1.7-2.1
		c0,0,0-0.1,0.1-0.1c0.1,0,0.1,0.1,0.1,0.1c0.1,0.7,0.4,1.4,1.4,2.4c0.5,0.5,1.1,1,1.6,1.5C63.5,68.3,63.7,68.9,63.6,69.4
		C63.6,69.4,63.6,69.4,63.6,69.4z M69.7,48.4c-1.4,0-2.5,0.5-3.3,1.2c-0.6-0.7-0.9-1.5-0.9-2.1c-0.1-0.7,0.5-1.5,1.8-1.7
		c0.7-0.1,1.5-0.1,2.2-0.2c1.4-0.1,2-0.5,2.6-1c0,0,0.1,0,0.1,0c0.1,0,0.1,0.1,0,0.1c-0.2,0.7-0.4,1.4,0,2.7
		c0.1,0.6,0.3,1.2,0.5,1.8C71.9,48.8,70.9,48.4,69.7,48.4z M77.4,63.3c-0.7,0-1.3,0.1-1.9,0.4c-0.1,0-0.3,0.1-0.4,0.2
		c0-0.2-0.1-0.5-0.1-0.7c-0.1-1.8,0.4-3.3,1.2-4c0.5-0.5,1.4-0.5,2.4,0.4c0.5,0.5,1,1.1,1.5,1.6c1,1,1.7,1.3,2.3,1.4
		c0,0,0.1,0,0.1,0.1c0,0.1,0,0.1-0.1,0.1c-0.6,0.2-1.2,0.5-1.8,1.3L80.3,64c-0.8-0.5-1.6-0.7-2.5-0.7H77.4z M86,78.8
		c0,0-0.1,0.1-0.1,0.1c-0.8-0.7-1.8-1.1-3.1-1.1c-1.2,0-2.2,0.4-3,1c-0.2-0.2-0.3-0.3-0.5-0.5c-0.6-0.6-0.8-1.2-0.7-1.7c0,0,0,0,0,0
		c0.1-1.2,2-2,4.3-1.9c1.8,0.1,3.2,0.8,3.8,1.7C87.1,77.1,87,78,86,78.8z M87.3,36.3c0-0.1,0.1-0.1,0.1,0c0.7,0.2,1.4,0.3,2.7,0
		c0.7-0.2,1.4-0.5,2.1-0.6c0.8-0.2,1.4-0.1,1.8,0.2c0,0,0,0,0,0c0.8,0.6,0.8,2.1,0.1,3.6c-0.7-0.4-1.5-0.6-2.5-0.6
		c-1.4,0-2.5,0.5-3.3,1.2c0-0.4-0.1-0.7-0.1-1.1c-0.2-1.4-0.6-2-1-2.5C87.3,36.4,87.3,36.4,87.3,36.3z M91.6,58.7
		c-1.8,0-3.3-0.6-3.9-1.4c-0.5-0.6-0.4-1.5,0.5-2.4c0.5-0.5,1.1-0.9,1.7-1.4c1-0.9,1.4-1.6,1.6-2.2c0,0,0-0.1,0.1-0.1
		c0.1,0,0.1,0,0.1,0.1c0.2,0.7,0.5,1.4,1.6,2.3c0.5,0.5,1.2,0.9,1.7,1.4c0.6,0.6,0.8,1.2,0.8,1.6c0,0,0,0,0,0
		C95.8,57.8,93.9,58.7,91.6,58.7z M106.6,66.3c-0.6-0.1-1.2-0.2-1.9-0.2c-2.1,0-3.7,0.6-5,1.6c-0.5-0.2-0.9-0.5-1.2-0.9
		c-0.5-0.6-0.4-1.5,0.5-2.4c0.5-0.5,1.1-0.9,1.7-1.4c1-0.9,1.4-1.6,1.6-2.2c0,0,0-0.1,0.1-0.1c0.1,0,0.1,0,0.1,0.1
		c0.2,0.7,0.5,1.4,1.6,2.3c0.5,0.5,1.2,0.9,1.7,1.4c0.6,0.6,0.8,1.2,0.8,1.6c0,0,0,0,0,0C106.7,66.2,106.6,66.3,106.6,66.3z
		 M112.9,47.2c-0.6,0.2-1.3,0.6-2.2,1.7c-0.4,0.6-0.8,1.2-1.3,1.8c-0.5,0.6-1.1,0.9-1.6,0.9c0,0,0,0,0,0c-1.2,0.1-2.3-1.7-2.4-4.1
		c-0.1-1.8,0.4-3.3,1.2-4c0.5-0.5,1.4-0.5,2.4,0.4c0.5,0.5,1,1.1,1.5,1.6c1,1,1.7,1.3,2.3,1.4c0,0,0.1,0,0.1,0.1
		C113,47.1,113,47.2,112.9,47.2z M123.6,56.2c-0.7-0.4-1.5-0.6-2.4-0.6c-1.3,0-2.4,0.4-3.1,1.1c-0.1-0.3-0.1-0.5-0.2-0.8
		c-0.3-1.3-0.8-1.9-1.3-2.4c0,0-0.1-0.1,0-0.1c0-0.1,0.1-0.1,0.1-0.1c0.7,0.1,1.4,0.2,2.7-0.4c0.7-0.3,1.3-0.6,2-0.9
		c0.8-0.3,1.4-0.2,1.8,0c0,0,0,0,0,0C124.2,52.7,124.3,54.4,123.6,56.2z"/>
</g>
</svg>
