<?xml version="1.0" encoding="utf-8"?>
<!-- Generator: Adobe Illustrator 28.0.0, SVG Export Plug-In . SVG Version: 6.00 Build 0)  -->
<svg version="1.1" id="Layer_1" xmlns="http://www.w3.org/2000/svg" xmlns:xlink="http://www.w3.org/1999/xlink" x="0px" y="0px"
	 viewBox="0 0 150 150" style="enable-background:new 0 0 150 150;" xml:space="preserve">
<style type="text/css">
	.st0{fill:#FEEBD0;}
	.st1{fill:#371116;}
	.st2{fill-rule:evenodd;clip-rule:evenodd;fill:#371116;}
	.st3{fill:#3E000A;}
</style>
<circle class="st0" cx="75" cy="75" r="75"/>
<g>
	<path class="st1" d="M57.1,48.3c1,0.6,2.2-0.5,1.7-1.6c-3.4-7.7-12.5-26.5-19-19.5C33.4,34.2,50,44.4,57.1,48.3z"/>
	<path class="st1" d="M88.8,119.2c-2.2,5.3-6.1,16.3,0.3,16.6c6.4,0.3,3.7-10.9,2-16.5C90.8,118.4,89.2,118.3,88.8,119.2z"/>
	<path class="st1" d="M48.9,53.2c1-0.3,1.1-1.7,0.1-2c-6-2.2-19.3-6.2-19.4,0.3C29.4,58,42.8,55,48.9,53.2z"/>
	<path class="st1" d="M96.2,109.3c-0.8-0.6-1.9,0.2-1.7,1.2c2.1,7.4,8.3,26,15.1,20.3C116.4,125.2,102.1,113.7,96.2,109.3z"/>
	<path class="st1" d="M107.2,108.1c-1.4-0.2-2.2,1.6-1.1,2.5c5.2,4.4,14.9,11.6,17.3,6C125.8,110.9,113.9,108.8,107.2,108.1z"/>
	<path class="st1" d="M54.2,87.4c2.2-6,5.2-16.4-1.4-16.4c-6.6,0-3.9,10.4-1.8,16.4C51.5,88.9,53.7,88.9,54.2,87.4z"/>
	<path class="st1" d="M51,105.7c-2.1,6-4.8,16.4,1.8,16.4c6.6,0,3.6-10.5,1.4-16.4C53.7,104.2,51.5,104.2,51,105.7z"/>
	<path class="st1" d="M61.9,94.8c-1.5,0.5-1.6,2.7-0.1,3.2c6,2.2,16.4,5.2,16.4-1.4C78.3,90,67.9,92.7,61.9,94.8z"/>
	<path class="st1" d="M43.5,94.8c-6-2.1-16.4-4.8-16.4,1.8c0,6.6,10.5,3.6,16.4,1.4C45.1,97.5,45.1,95.3,43.5,94.8z"/>
	<path class="st1" d="M60.2,91.1c5.8-2.7,15.3-8,10.6-12.6c-4.6-4.6-10.1,4.6-12.9,10.3C57.3,90.3,58.8,91.8,60.2,91.1z"/>
	<path class="st1" d="M45,101.8c-5.7,2.7-15,8.2-10.3,12.9c4.7,4.7,10-4.8,12.6-10.6C48,102.6,46.5,101.1,45,101.8z"/>
	<path class="st1" d="M60.2,102c-1.5-0.7-2.9,0.9-2.2,2.3c2.7,5.7,8.2,15,12.9,10.3C75.5,110,66,104.7,60.2,102z"/>
	<path class="st1" d="M34.7,78.5C30,83.1,39.3,88.6,45,91.3c1.4,0.7,3-0.8,2.3-2.2C44.7,83.3,39.3,73.8,34.7,78.5z"/>
	<circle class="st1" cx="52.8" cy="96.4" r="4.9"/>
	<path class="st1" d="M76.3,30.9c1.3,0.3,2.6,0.5,3.7,0.8c3-1.1,6.3-1.6,9.8-1.4c2.6-2.8,5.7-4.9,9-6.1c0.7-1,1.4-2,2.2-3.1
		c3.8-5.4,8.2-8,8.2-8s-5.5-1.9-11,1.7c-0.9-3.5-3-5.7-3-5.7s-4.2,1.9-6,6.7c-2.9-4.1-7-5.2-7-5.2s-2.2,3.6-1.6,8.4
		c-4.7-2.3-9-0.8-9-0.8s0,3.1,1.8,6.3c-6.1,1.3-8.6,6.2-8.6,6.2S69.8,29.6,76.3,30.9z"/>
	<path class="st1" d="M114.3,101.3c14.4-5,21.5-31.3,21.5-40.2C135.6,42.7,123.6,27.4,109,27c-6.8-0.2-13,2.8-17.6,8
		c-7.1-1.1-14.1,0.6-19.3,5.4c-5.3,4.9-7.8,12.1-7.5,19.9c-3.7-1.2-7.6-1.8-11.7-1.8c-21,0-38.1,17.1-38.1,38.1
		c0,21,17.1,38.1,38.1,38.1c20.9,0,37.9-17,38.1-37.8C98.5,100.9,107.3,103.7,114.3,101.3z M112.3,92.9c-0.7,0.3-1.7-0.7-2.3-2.1
		c-0.6-1.4-0.5-2.8,0.2-3.1c0.7-0.3,1.7,0.7,2.3,2.1C113,91.3,112.9,92.7,112.3,92.9z M127,49.5c0.7-0.3,1.7,0.7,2.3,2.1
		c0.6,1.4,0.5,2.8-0.2,3.1c-0.7,0.3-1.7-0.7-2.3-2.1C126.2,51.2,126.3,49.8,127,49.5z M123.5,61.1c0.7-0.3,1.7,0.7,2.3,2.1
		c0.6,1.4,0.5,2.8-0.2,3.1s-1.7-0.7-2.3-2.1C122.7,62.8,122.8,61.4,123.5,61.1z M121.9,81.8c-0.7,0.3-1.7-0.7-2.3-2.1
		c-0.6-1.4-0.5-2.8,0.2-3.1s1.7,0.7,2.3,2.1C122.7,80.2,122.6,81.5,121.9,81.8z M118.6,41.9c0.7-0.3,1.7,0.7,2.3,2.1
		c0.6,1.4,0.5,2.8-0.2,3.1c-0.7,0.3-1.7-0.7-2.3-2.1C117.8,43.6,117.9,42.2,118.6,41.9z M113.6,52.4c0.7-0.3,1.7,0.7,2.3,2.1
		c0.6,1.4,0.5,2.8-0.2,3.1c-0.7,0.3-1.7-0.7-2.3-2.1C112.8,54.1,112.9,52.7,113.6,52.4z M112.2,65c0.7-0.3,1.7,0.7,2.3,2.1
		c0.6,1.4,0.5,2.8-0.2,3.1c-0.7,0.3-1.7-0.7-2.3-2.1C111.5,66.7,111.6,65.3,112.2,65z M111,78.9c0.6,1.4,0.5,2.8-0.2,3.1
		c-0.7,0.3-1.7-0.7-2.3-2.1c-0.6-1.4-0.5-2.8,0.2-3.1C109.5,76.5,110.5,77.5,111,78.9z M107,36.3c0.7-0.3,1.7,0.7,2.3,2.1
		c0.6,1.4,0.5,2.8-0.2,3.1c-0.7,0.3-1.7-0.7-2.3-2.1C106.3,38,106.4,36.6,107,36.3z M103.3,47.8c0.7-0.3,1.7,0.7,2.3,2.1
		c0.6,1.4,0.5,2.8-0.2,3.1c-0.7,0.3-1.7-0.7-2.3-2.1C102.6,49.4,102.6,48.1,103.3,47.8z M100,60c0.7-0.3,1.7,0.7,2.3,2.1
		c0.6,1.4,0.5,2.8-0.2,3.1c-0.7,0.3-1.7-0.7-2.3-2.1C99.2,61.7,99.3,60.3,100,60z M98.2,72.5c0.7-0.3,1.7,0.7,2.3,2.1
		c0.6,1.4,0.5,2.8-0.2,3.1c-0.7,0.3-1.7-0.7-2.3-2.1C97.5,74.1,97.6,72.7,98.2,72.5z M97,89.2c-0.7,0.3-1.7-0.7-2.3-2.1
		c-0.6-1.4-0.5-2.8,0.2-3.1c0.7-0.3,1.7,0.7,2.3,2.1C97.8,87.5,97.7,88.9,97,89.2z M93.5,43.5c0.7-0.3,1.7,0.7,2.3,2.1
		c0.6,1.4,0.5,2.8-0.2,3.1c-0.7,0.3-1.7-0.7-2.3-2.1C92.8,45.1,92.9,43.7,93.5,43.5z M88.1,56.4c0.7-0.3,1.7,0.7,2.3,2.1
		c0.6,1.4,0.5,2.8-0.2,3.1c-0.7,0.3-1.7-0.7-2.3-2.1C87.3,58.1,87.4,56.7,88.1,56.4z M86.7,69c0.7-0.3,1.7,0.7,2.3,2.1
		c0.6,1.4,0.5,2.8-0.2,3.1c-0.7,0.3-1.7-0.7-2.3-2.1C86,70.6,86,69.2,86.7,69z M76.9,48.6c0.7-0.3,1.7,0.7,2.3,2.1
		c0.6,1.4,0.5,2.8-0.2,3.1c-0.7,0.3-1.7-0.7-2.3-2.1C76.2,50.3,76.2,48.9,76.9,48.6z M74.5,64.4c-0.6-1.4-0.5-2.8,0.2-3.1
		c0.7-0.3,1.7,0.7,2.3,2.1c0.6,1.4,0.5,2.8-0.2,3.1c-0.1,0-0.2,0-0.4,0c-0.4-0.3-0.8-0.6-1.2-0.9C74.9,65.3,74.7,64.9,74.5,64.4z
		 M52.8,128.1c-17.5,0-31.7-14.2-31.7-31.7c0-17.5,14.2-31.7,31.7-31.7s31.7,14.2,31.7,31.7C84.5,113.9,70.2,128.1,52.8,128.1z"/>
</g>
</svg>
