<?xml version="1.0" encoding="UTF-8"?><svg id="Layer_1" xmlns="http://www.w3.org/2000/svg" viewBox="0 0 150 150"><defs><style>.cls-1{fill:#3e000a;}.cls-1,.cls-2{stroke-width:0px;}.cls-2{fill:#feebd0;}</style></defs><circle class="cls-2" cx="75" cy="75" r="75"/><path class="cls-1" d="M101.99,123.58c-2.44-3.3-5.44-6.41-8.03-9.59-4.95-6.06-6.05-10.3-6.48-14.22-.02-.23-.15-.53-.54-.6-.4-.07-.62.16-.72.37-1.78,3.52-4.28,7.11-11.05,11.05-3.54,2.07-7.44,3.93-10.88,6.17-6.4,4.17-7.4,9.27-5.4,12.85,2.55,5.24,10.4,10.08,20.31,11.95,12.93,2.44,24.45-1.12,25.74-7.95,0,0,0-.02,0-.03.63-2.7-.09-6.15-2.94-10Z"/><path class="cls-1" d="M80.1,19.52c-3.85-.94-8-1.4-11.88-2.15-7.41-1.44-10.84-3.91-13.58-6.55-.16-.16-.43-.3-.77-.11-.34.19-.36.51-.31.72.85,3.71,1.21,7.92-1.38,15.01-1.35,3.71-3.09,7.51-4.26,11.29-2.18,7.04.23,11.44,3.92,12.87,5.12,2.31,13.94,1.06,22.44-3.67,11.09-6.17,17.45-15.92,14.19-21.78,0,0-.01-.02-.01-.02-1.2-2.39-3.86-4.5-8.36-5.61Z"/><path class="cls-1" d="M49.76,64.32c-2.05-3.39-4.67-6.64-6.87-9.92-4.23-6.26-4.9-10.43-4.97-14.23,0-.22-.09-.52-.47-.63-.38-.11-.61.1-.73.29-2.02,3.22-4.74,6.46-11.59,9.64-3.58,1.67-7.49,3.12-11,4.97-6.52,3.44-7.93,8.25-6.33,11.87,1.99,5.26,9.11,10.61,18.46,13.27,12.21,3.48,23.6,1.08,25.43-5.37,0,0,0-.02,0-.03.84-2.53.45-5.91-1.94-9.87Z"/><path class="cls-1" d="M56.83,111.21c-.76-3.89-2.08-7.85-3.03-11.68-1.81-7.33-1-11.48.25-15.08.08-.21.09-.52-.22-.75-.32-.23-.61-.12-.79.02-3.01,2.33-6.68,4.42-14.21,5.05-3.94.33-8.11.34-12.04.87-7.31.98-10.29,5.01-10.04,8.96.05,5.62,4.89,13.1,12.74,18.83,10.26,7.48,21.77,9.16,25.72,3.74,0,0,0-.02.02-.02,1.66-2.09,2.47-5.39,1.59-9.94Z"/><path class="cls-1" d="M86,60.39c-3.96.21-8.06.98-11.99,1.38-7.51.78-11.51-.59-14.9-2.32-.2-.1-.5-.16-.77.12-.27.28-.2.59-.09.78,1.89,3.3,3.46,7.23,3.04,14.77-.21,3.95-.78,8.08-.8,12.04-.04,7.37,3.54,10.88,7.49,11.18,5.57.72,13.65-3.03,20.41-10.02,8.83-9.12,12.07-20.3,7.25-24.96,0,0-.01-.01-.02-.02-1.84-1.94-5-3.19-9.62-2.94Z"/><path class="cls-1" d="M131.52,79.07c-3.68-1.47-7.73-2.49-11.46-3.78-7.14-2.45-10.2-5.37-12.54-8.36-.14-.18-.39-.36-.75-.22-.37.14-.43.45-.41.67.33,3.79.1,8.01-3.44,14.68-1.85,3.49-4.1,7-5.78,10.59-3.13,6.68-1.35,11.36,2.1,13.29,4.76,3,13.66,2.98,22.73-.53,11.84-4.58,19.48-13.35,17.07-19.61,0,0,0-.02-.01-.03-.86-2.53-3.2-4.99-7.5-6.71Z"/><path class="cls-1" d="M102.33,24.73c-1.85,3.5-3.31,7.41-4.99,10.99-3.2,6.84-6.44,9.56-9.67,11.57-.19.12-.4.35-.3.72.1.38.4.47.63.48,3.8.08,7.98.76,14.22,5,3.27,2.21,6.52,4.83,9.91,6.89,6.3,3.83,11.15,2.57,13.43-.66,3.49-4.41,4.43-13.26,1.92-22.66-3.27-12.27-11.18-20.81-17.66-19.08,0,0-.02,0-.03,0-2.61.58-5.31,2.64-7.48,6.73Z"/></svg>