<?xml version="1.0" encoding="utf-8"?>
<!-- Generator: Adobe Illustrator 28.0.0, SVG Export Plug-In . SVG Version: 6.00 Build 0)  -->
<svg version="1.1" id="Layer_1" xmlns="http://www.w3.org/2000/svg" xmlns:xlink="http://www.w3.org/1999/xlink" x="0px" y="0px"
	 viewBox="0 0 150 150" style="enable-background:new 0 0 150 150;" xml:space="preserve">
<style type="text/css">
	.st0{fill:#FEEBD0;}
	.st1{fill:#371116;}
	.st2{fill-rule:evenodd;clip-rule:evenodd;fill:#371116;}
	.st3{fill:#3E000A;}
</style>
<circle class="st0" cx="75" cy="75" r="75"/>
<path class="st1" d="M132.2,103.9L96.8,22.2c-1.4-3.3-5-5-8.4-4.1l-59,15.2c-2.9,0.8-5.1,3.2-5.5,6.2l-6.6,48
	c-0.4,3.1,0.7,6.2,2.9,8.4l35.1,34c2.1,2,5,2.7,7.8,2l9.3-2.7L40,50.7c0-0.1,0-0.2-0.1-0.3l-2.3-5.6c-1.1-2.5,0.4-5.4,3-6.1l15.1-4
	c2.2-0.6,4.5,0.6,5.4,2.7l33.2,80.9c0,0,0,0,0,0.1l1.7,4.1l7.9-2.3l-1.3-3.3c0,0,0,0,0,0L69.6,36.3c-1-2.5,0.4-5.4,3.1-6.1l14.7-3.9
	c2.2-0.6,4.5,0.6,5.4,2.7l2.3,5.6c0,0.1,0.1,0.1,0.1,0.2l31.9,78.7l0.6-0.2C131.7,112.2,133.8,107.7,132.2,103.9z"/>
</svg>
