<?xml version="1.0" encoding="utf-8"?>
<!-- Generator: Adobe Illustrator 28.0.0, SVG Export Plug-In . SVG Version: 6.00 Build 0)  -->
<svg version="1.1" id="Layer_1" xmlns="http://www.w3.org/2000/svg" xmlns:xlink="http://www.w3.org/1999/xlink" x="0px" y="0px"
	 viewBox="0 0 150 150" style="enable-background:new 0 0 150 150;" xml:space="preserve">
<style type="text/css">
	.st0{fill:#FEEBD0;}
	.st1{fill:#371116;}
	.st2{fill-rule:evenodd;clip-rule:evenodd;fill:#371116;}
	.st3{fill:#3E000A;}
</style>
<circle class="st0" cx="75" cy="75" r="75"/>
<g>
	<path class="st3" d="M133.5,103.8c-3.2-1.2-6.8,0.4-8,3.6c-1.2,3.2,0.4,6.8,3.6,8c3.2,1.2,6.8-0.4,8-3.6
		C138.4,108.6,136.8,105,133.5,103.8z"/>
	<path class="st3" d="M115,111.5c-3.2-1.2-6.8,0.4-8,3.6c-1.2,3.2,0.4,6.8,3.6,8c3.2,1.2,6.8-0.4,8-3.6
		C119.9,116.3,118.3,112.7,115,111.5z"/>
	<path class="st3" d="M131.6,82.4c1.2,0.4,2.4,0.2,3.5-0.5c1-0.7,1.7-1.8,1.7-3c1.4-22-9.1-43.3-27.4-55.6
		C80.9,4.2,42.1,11.8,23,40.3c-19.1,28.5-11.5,67.3,17,86.4c10.4,7,22.2,10.6,34.6,10.6c1.4,0,2.7,0,4.1-0.1
		c1.3-0.1,2.4-0.8,3.1-1.8c0.7-1.1,0.8-2.4,0.3-3.6c-1.3-3.3-0.9-7.1,1.1-10c0.4-0.6,0.9-1.2,1.4-1.7c0.8-0.8,1.2-1.8,1.2-2.9
		c0-1.1-0.5-2.1-1.4-2.9c-4.1-3.6-4.9-9.7-1.9-14.2c2.5-3.7,6.9-5.5,11.2-4.6c1.2,0.3,2.5-0.1,3.4-0.9c0.9-0.8,1.4-2.1,1.3-3.3
		c-0.2-2.5,0.4-4.9,1.8-7c1.6-2.4,4.1-4,6.9-4.6c2.8-0.6,5.7,0,8.1,1.6c0.7,0.5,1.3,1,2,1.7c1.3,1.4,3.5,1.7,5.1,0.7
		C125,81.8,128.5,81.3,131.6,82.4z M51.1,32.5c2.4-2.4,6.4-2.4,8.8,0c2.4,2.4,2.4,6.4,0,8.8c-2.4,2.4-6.4,2.4-8.8,0
		C48.6,38.9,48.6,35,51.1,32.5z M43.6,71.2c-2.4,2.4-6.4,2.4-8.8,0c-2.4-2.4-2.4-6.4,0-8.8c2.4-2.4,6.4-2.4,8.8,0
		C46,64.8,46,68.7,43.6,71.2z M56.3,113.2c-2.4,2.4-6.4,2.4-8.8,0c-2.4-2.4-2.4-6.4,0-8.8c2.4-2.4,6.4-2.4,8.8,0
		C58.7,106.8,58.7,110.8,56.3,113.2z M67.2,87.1c-2.4,2.4-6.4,2.4-8.8,0c-2.4-2.4-2.4-6.4,0-8.8c2.4-2.4,6.4-2.4,8.8,0
		C69.6,80.7,69.6,84.6,67.2,87.1z M81.3,65.4c-2.4,2.4-6.4,2.4-8.8,0c-2.4-2.4-2.4-6.4,0-8.8c2.4-2.4,6.4-2.4,8.8,0
		C83.7,59,83.7,63,81.3,65.4z M87.4,39.3c-2.4,2.4-6.4,2.4-8.8,0c-2.4-2.4-2.4-6.4,0-8.8c2.4-2.4,6.4-2.4,8.8,0
		C89.8,33,89.8,36.9,87.4,39.3z M108.2,56.7c-2.4,2.4-6.4,2.4-8.8,0c-2.4-2.4-2.4-6.4,0-8.8c2.4-2.4,6.4-2.4,8.8,0
		C110.7,50.3,110.7,54.3,108.2,56.7z"/>
</g>
</svg>
