<?xml version="1.0" encoding="utf-8"?>
<!-- Generator: Adobe Illustrator 28.0.0, SVG Export Plug-In . SVG Version: 6.00 Build 0)  -->
<svg version="1.1" id="Layer_1" xmlns="http://www.w3.org/2000/svg" xmlns:xlink="http://www.w3.org/1999/xlink" x="0px" y="0px"
	 viewBox="0 0 150 150" style="enable-background:new 0 0 150 150;" xml:space="preserve">
<style type="text/css">
	.st0{fill:#FEEBD0;}
	.st1{fill:#371116;}
	.st2{fill-rule:evenodd;clip-rule:evenodd;fill:#371116;}
	.st3{fill:#3E000A;}
</style>
<circle class="st0" cx="75" cy="75" r="75"/>
<g>
	<polygon class="st1" points="45.1,56.3 31.1,56.3 45.1,34.1 45.1,29 24,29 24,34.7 37.1,34.7 23,57 23,61.9 45.1,61.9 	"/>
	<polygon class="st1" points="69.3,56.3 56.6,56.3 56.6,47.5 65.3,47.5 65.3,42.1 56.6,42.1 56.6,34.7 68.7,34.7 68.7,29 49.9,29 
		49.9,61.9 69.3,61.9 	"/>
	<path class="st1" d="M79.7,49.7h3.1l5.5,12.2h7l-6.3-13.8c3.2-1.3,5.4-4.3,5.4-8.7C94.5,32,90.3,29,83.3,29H73.1v32.8h6.6V49.7z
		 M79.7,34.7h3.4c3.3,0,4.9,1.2,4.9,4.8c0,3.7-1.6,5.1-4.9,5.1h-3.4V34.7z"/>
	<path class="st1" d="M110.7,62.5c7.1,0,13-5.3,13-17c0-11.8-5.9-17-13-17c-7.1,0-13,5.3-13,17C97.7,57.2,103.6,62.5,110.7,62.5z
		 M110.7,34.2c4,0,6.2,4,6.2,11.3c0,7.3-2.2,11.4-6.2,11.4c-4.1,0-6.3-4.2-6.3-11.4C104.5,38.2,106.6,34.2,110.7,34.2z"/>
	<path class="st1" d="M124.6,105.2c-0.4-2.1-2.1-3.7-4.1-4c-0.3-0.3-0.6-0.6-1-0.9c-0.3-3.2-3-5.8-6.2-5.7c-0.2-0.3-0.4-0.6-0.7-0.9
		v-5.1h2.7L120,99h6l-5.4-11.9c2.7-1.1,4.7-3.7,4.7-7.5c0-6.3-3.6-8.8-9.6-8.8h-8.8v21.2c-0.9,0.2-1.8,0.7-2.5,1.4l-6.6-22.7h-5.6
		L84,99h5.4l1.6-6h7.8l1.5,6h1.9c-1.1,0.6-1.9,1.6-2.4,2.8c-0.7-0.3-1.4-0.5-2.2-0.5c-2,0-3.8,1.1-4.7,2.9c-3,0.2-5.4,2.9-5.4,6.1
		c0,0,0,0.1,0,0.1c-4.5-1.9-12-4.4-21.8-5.7c-20.4-2.6-38.8,2.1-39.6,2.3c-4.6,1.2-6.3,4-3.6,6.2c2.6,2.1,8.2,2.7,12.5,1.4
		c0.1,0,13.3-3.9,28.4-2.6c13.6,1.2,22.4,5.7,22.5,5.7c0.2,0.1,0.4,0.2,0.6,0.3c3.4,6.4,11.2,10.9,20.4,10.9
		c11.8,0,21.5-7.5,22.1-16.8c0.1-0.3,0.2-0.6,0.2-0.9C128.7,108.4,127,106.1,124.6,105.2z M112.6,75.6h2.9c2.8,0,4.2,1.1,4.2,4.1
		c0,3.2-1.4,4.4-4.2,4.4h-2.9V75.6z M92.1,88.5l0.8-2.9c0.8-3,1.4-5,1.9-7.7h0.1c0.5,2.6,1.1,4.7,1.9,7.7l0.7,2.9H92.1z M90.8,109.6
		c0.3-1.2,1.3-2.1,2.5-2.1c0.1,0,0.3,0,0.4,0c0.9,0.2,1.7-0.4,1.9-1.3c0.2-1,1-1.6,1.9-1.6c0.6,0,1.1,0.3,1.5,0.8
		c0.5,0.6,1.3,0.8,2.1,0.5c0.1-0.1,0.2-0.1,0.3-0.1c0.7-0.2,1.3-0.9,1.2-1.7l0-0.1c0-1.3,1-2.4,2.2-2.5c0.6,0,1.1-0.3,1.4-0.8
		c0.3-0.5,0.3-1.1,0-1.6c-0.2-0.4-0.4-0.9-0.4-1.3c0-1.5,1.1-2.6,2.5-2.6c1.1,0,2,0.7,2.3,1.9c0.1,0.4,0.4,0.8,0.8,1
		c0.4,0.2,0.9,0.3,1.3,0.1c0.2-0.1,0.5-0.1,0.7-0.1c1.5,0,2.6,1.3,2.6,2.8l0,0.3c-0.1,0.7,0.3,1.4,0.9,1.7c0.5,0.2,0.9,0.6,1.1,1
		c0.3,0.5,0.8,0.7,1.4,0.7c0.1,0,0.1,0,0.2,0c0.8,0,1.5,0.8,1.5,1.7c0,0,0,0.2,0,0.2c-0.1,0.9,0.5,1.6,1.4,1.8
		c0.9,0.2,1.7,0.7,2.3,1.5H90.8z"/>
	<path class="st1" d="M31.7,94.9c-2.7,0-4.7-2-5.9-4.5l-4.7,2.4c1.9,4,5.1,6.7,10.6,6.7c6.1,0,9.4-3.8,9.4-8c0-5.7-4.8-7.5-8.6-9.2
		c-2.5-1.1-4.7-2.2-4.7-4.5c0-1.6,1.1-2.8,3.2-2.8c2.4,0,3.9,1.6,5.1,4l4.5-2.4c-1.7-3.6-4.7-6.3-9.5-6.3c-5.1,0-9,3.2-9,7.9
		c0,5.7,4.5,7.5,8.2,9c2.7,1.1,5,2.2,5,4.5C35.4,93.6,34.1,94.9,31.7,94.9z"/>
	<path class="st1" d="M42.2,70.8v18.5c0,6.5,2.9,10.2,9.7,10.2c6.8,0,9.6-3.7,9.6-10.3V70.8H56v18.2c0,3.9-1.1,5.6-4,5.6
		c-2.9,0-4-1.8-4-5.7V70.8H42.2z"/>
	<path class="st1" d="M83.7,99v-14h-9.3v4.3h4.1c-0.4,3.6-2,5.4-4.6,5.4c-3.1,0-5.3-2.4-5.3-10c0-7.5,2.3-9.5,5-9.5
		c2.3,0,3.7,1.5,4.5,5.8l5.3-1c-1.2-6.8-4.2-9.7-9.5-9.7c-7.1,0-11,5.3-11,14.6c0,9.2,3.6,14.6,10.3,14.6c3.5,0,5.7-2.2,6.4-4.1h0
		V99H83.7z"/>
</g>
</svg>
