<?xml version="1.0" encoding="utf-8"?>
<!-- Generator: Adobe Illustrator 28.0.0, SVG Export Plug-In . SVG Version: 6.00 Build 0)  -->
<svg version="1.1" id="Layer_1" xmlns="http://www.w3.org/2000/svg" xmlns:xlink="http://www.w3.org/1999/xlink" x="0px" y="0px"
	 viewBox="0 0 150 150" style="enable-background:new 0 0 150 150;" xml:space="preserve">
<style type="text/css">
	.st0{fill:#FEEBD0;}
	.st1{fill:#371116;}
	.st2{fill-rule:evenodd;clip-rule:evenodd;fill:#371116;}
	.st3{fill:#3E000A;}
</style>
<circle class="st0" cx="75" cy="75" r="75"/>
<path class="st1" d="M135.3,110.3c-0.1-0.9-0.7-1.8-1.5-2.3c-9.6-5.8-21.3-7.4-31-7.1c5.7-8.2,9-18.2,9-28.9
	c0-28.2-22.9-51.1-51.1-51.1S9.7,43.9,9.7,72.1s22.9,51.1,51.1,51.1c5,0,9.9-0.7,14.5-2.1c0.8,0.2,1.7,0,2.4-0.5
	c3.4-1.2,26.3-6,42.6,3.9c0.5,0.3,1.1,0.5,1.6,0.5c0.8,0,1.7-0.3,2.3-1l10.3-11C135.1,112.2,135.4,111.3,135.3,110.3z M76.2,81.3
	c3-5.1,9.6-6.7,14.7-3.7c5.1,3,6.7,9.6,3.7,14.7c-3,5.1-9.6,6.7-14.7,3.7C74.8,92.9,73.1,86.3,76.2,81.3z M79.9,48.2
	c5.1-3,11.6-1.4,14.7,3.7c3,5.1,1.4,11.6-3.7,14.7c-5.1,3-11.6,1.4-14.7-3.7C73.1,57.8,74.8,51.2,79.9,48.2z M41.6,48.2
	c5.1,3,6.7,9.6,3.7,14.7c-3,5.1-9.6,6.7-14.7,3.7c-5.1-3-6.7-9.6-3.7-14.7C30,46.8,36.6,45.2,41.6,48.2z M30.7,77.5
	c5.1-3,11.6-1.4,14.7,3.7c3,5.1,1.4,11.6-3.7,14.7C36.6,99,30,97.3,27,92.2C23.9,87.1,25.6,80.6,30.7,77.5z M50.1,100.7
	c0-5.9,4.8-10.7,10.7-10.7c5.9,0,10.7,4.8,10.7,10.7c0,5.9-4.8,10.7-10.7,10.7C54.8,111.4,50.1,106.6,50.1,100.7z M53.6,72.1
	c0-3.9,3.2-7.1,7.1-7.1s7.1,3.2,7.1,7.1c0,3.9-3.2,7.1-7.1,7.1S53.6,76,53.6,72.1z M60.8,54.1c-5.9,0-10.7-4.8-10.7-10.7
	s4.8-10.7,10.7-10.7c5.9,0,10.7,4.8,10.7,10.7S66.7,54.1,60.8,54.1z M92.6,112c1.6-1.3,3.1-2.7,4.6-4.1c3.2-0.4,6.9-0.6,10.8-0.4
	l-4.4,5.1C99.8,112,96,111.9,92.6,112z M121.2,117.8c-3.4-1.8-6.9-3-10.5-3.9l4.7-5.5c0.1-0.1,0.1-0.2,0.2-0.2
	c3.9,0.6,7.8,1.7,11.5,3.4L121.2,117.8z"/>
</svg>
