<?xml version="1.0" encoding="utf-8"?>
<!-- Generator: Adobe Illustrator 28.0.0, SVG Export Plug-In . SVG Version: 6.00 Build 0)  -->
<svg version="1.1" id="Layer_1" xmlns="http://www.w3.org/2000/svg" xmlns:xlink="http://www.w3.org/1999/xlink" x="0px" y="0px"
	 viewBox="0 0 150 150" style="enable-background:new 0 0 150 150;" xml:space="preserve">
<style type="text/css">
	.st0{fill:#FEEBD0;}
	.st1{fill:#371116;}
	.st2{fill-rule:evenodd;clip-rule:evenodd;fill:#371116;}
	.st3{fill:#3E000A;}
</style>
<circle class="st0" cx="75" cy="75" r="75"/>
<path class="st1" d="M112.9,82.5l13.8-16.2c-1.5-0.2-2.9-0.8-4.1-1.9c-2.4-2.3-2.7-6-0.9-8.7c-0.8-0.3-1.6-0.8-2.3-1.5
	c-2.7-2.7-2.8-7-0.1-9.7c0.9-0.9,2-1.5,3.1-1.8c-0.3-2,0.4-4.1,1.9-5.7c0.7-0.7,1.5-1.2,2.3-1.6L97.3,10.4c-1.9-1.7-4.9-1.4-6.5,0.5
	l-28,32.9l-11.9-1.7c-1.2-0.2-2.4,0.4-3,1.4l-5.4,8.2C42,52.4,41.8,53.2,42,54l1.3,6.3L21.1,86.1l-8.4,6.7c-0.7,0.6-1.2,1.5-1.2,2.4
	c0,0.9,0.4,1.8,1.1,2.4l53.7,45.1c0.6,0.5,1.3,0.7,2,0.7c0.2,0,0.4,0,0.6-0.1c0.9-0.2,1.7-0.8,2.2-1.6l4.9-9.3
	c0.1-0.3,0.2-0.6,0.3-0.8l23.8-27.7l4.5,2.4c0.5,0.2,1,0.4,1.5,0.4c0.9,0,1.7-0.4,2.3-1.1l7.7-8.9c0.7-0.8,1-2,0.6-3L112.9,82.5z
	 M67.3,135.4L19.5,95.3l4.7-3.7l45.9,37.8c-0.2,0.5-0.4,1-0.3,1.5L67.3,135.4z M72.4,126.5L26.9,88.9l18-20.9l1.2,6
	c0.2,0.9,0.8,1.7,1.6,2.1L88.9,98l5.5,2.9L72.4,126.5z M105.2,99.7l-4.5-2.4c0,0,0,0,0,0l-14.5-7.7L51.9,71.3L48.3,54l3.6-5.5
	l5.8,0.8l-2.1,2.3c-0.6,0.6-0.9,1.5-0.8,2.3c0.1,0.9,0.5,1.7,1.1,2.2l44.8,37.1c0.6,0.5,1.5,0.8,2.3,0.7c0.8-0.1,1.6-0.5,2.1-1.2
	l3.2-4.1l1.8,5.3L105.2,99.7z"/>
</svg>
